<?xml version="1.0" encoding="UTF-8"?>
<svg id="Layer_1" data-name="Layer 1" xmlns="http://www.w3.org/2000/svg" viewBox="0 0 492.99 192">
  <defs>
    <style>
      .cls-1 {
        fill: #ed1c24;
        opacity: .33;
      }

      .cls-1, .cls-2, .cls-3, .cls-4, .cls-5, .cls-6, .cls-7, .cls-8, .cls-9, .cls-10, .cls-11, .cls-12, .cls-13 {
        stroke-width: 0px;
      }

      .cls-2 {
        fill: #1b1464;
        opacity: .43;
      }

      .cls-3 {
        fill-rule: evenodd;
      }

      .cls-3, .cls-13 {
        fill: #fff;
      }

      .cls-4 {
        fill: #8b0025;
      }

      .cls-5 {
        fill: #193645;
      }

      .cls-6 {
        fill: #193644;
      }

      .cls-7 {
        fill: #1a3541;
      }

      .cls-8 {
        fill: #1a3542;
      }

      .cls-9 {
        fill: #1b3542;
      }

      .cls-10 {
        fill: #1a3441;
      }

      .cls-11 {
        fill: #193441;
      }

      .cls-12 {
        fill: #193442;
      }
    </style>
  </defs>
  <g>
    <path class="cls-3" d="m325.43,123.28c-.09-.16-.25-.28-.37-.43-.79-1.01-1.6-1.42-2.74-.44-.77.67-1.69.47-2.56.08-.44-.19-.23-.39-.06-.85.27-.69.08-1.45-.28-1.85.27-.02.55-.01.74,0,.01-.22-.15-.24-.15-.45.39.07.22-.31.45-.37.68-.22.73.34,1.2.03-.15.03-.1.7.03.34-.05-.77,1.05-.97,1.73-.81-.12-.46.43.09.58-.27-.03-.33-.31-.4-.52-.54-.05.14-.11.27-.21.36-.49-.16-.77-.55-1.25-.71.32-.02.71.01.7-.28-1.09.09-1.34.2-2.37.28.03-.36-.34-.28-.4-.54-.41.09-.55.4-.92.52-.48-.51-1.68-.07-2.44-.62-.47.2-1.06.75-1.31.09-.38-.03-.29.33-.57.38-.24-.06-.02-.64-.29-.66-.02.32-.35.16-.56.5-.2-.34-.67-.38-.91-.68.37-.19.75-.36,1.13-.46-.04.02-.06.05-.07.1.54-.02.83.23,1.23.37.14-.14.02-.43-.16-.56,0,.14.04.32-.09.35-.11-.14-.24-.25-.36-.37.46-.04.93-.05,1.39-.06,0,0,0,.01.01.01,0,0,0,0,0-.01.92-.02,1.85-.03,2.77-.08.17,0,.36-.43.45-.7.04-.11-.17-.32-.29-.46-.24-.29-.67-.83-.73-.79-1.53,1.04-2.63-.31-3.59-.98-.31-.21-.6-.37-.89-.5,1.51.02,2.52.15,4.28-.03-.02.16-.18.2-.21.36.5-.08.62-.48,1.16-.54.03.13,0,.32.15.33.02-.18.25-.1.36-.02.08-.37-.4-.13-.39-.43.71-.53,1.63-.06,2.59-.53.23.32.8.27,1.12.49.12-.51-.18-.7.29-.94.26.5.84.97.11,1.36.2-.01.09.31.26.32-.08-.59.68-.5,1.27-.55-.13-.49.73-.58.82-.29.08-.25.26-.42.69-.39.5.56-.28.61-.3.82.32-.09.96.08,1.06-.19-.73-.1.57-.22-.05-.68-.25-.01-.08.27-.45.37-.09-.43.12-.61.42-.72.43.11.47.84.55.99.28-.19.84.22,1.17-.31-.56.34-1.42-.08-1.12-.6.49-.07.19.43.39.43.23-.15,1.08-.44.86.28.5-.2.42-.45.18-.81.56-.09.51.35.28.55.32-.11.26.21.49.19.24-.34-.24-.62-.07-.91.25.01.26.29.39.43.42-.11.57-.45,1.16-.42.29.75.74-.05,1.24.6-.04-.28-.25-.34.08-.46.25.01.14.41.39.43-.04-.28-.07-.55.19-.58.01.07.03.13.13.1,0,.18-.3.11-.21.36,1.47-.44,1.77-.51,2.77.26.15-.5.84-.36,1.18-.2-.13-.35.16-.36.19-.58-.57.15-.3-.31-.28-.55-.44-.14-.62.05-1.09-.15.05.36-.4.31-.56.5-.1-.26-.33-.37-.52-.53-.02.27-.84.43-.94.29.09-.28.87,0,.68-.51-.53.26-.52-.12-.14-.33-1.52,0-1.44-.03-2.74.19-.08-.26.26-.5.07-.69-.16.63-1-.09-1.57-.12.18-.03.44,0,.47-.15-.19-.33-.33.05-.5-.31.18-.04,0-.19-.14-.22-.17.36-.07.45-.18.7-1.03-.02-2.64-.21-3.09-1.26.52.31.94-.33,1.57.12-.07-.27.2-.26.07-.58-.74-.14-1.24-.09-2.06-.31.12-.17.11-.29-.15-.33,0,.14-.01.27-.22.24.12-.17.11-.29-.14-.33.07.22-.52.4-.59.16.66-.12.15-.63.46-.9.11,0,.23.01.34.02.2.16.14.52.35.34-.12-.05-.04-.2-.1-.32.19.01.39.03.58.04.04.17.19.31.36.34-.09-.12-.14-.22-.16-.33.23.01.46.03.69.04-.01.05-.02.1-.06.14.19.01.32-.03.39-.11.07,0,.14,0,.21.01,0,.02,0,.04,0,.06.15.05.19.01.2-.05.31.02.61.04.92.06.02.12.09.24.1.25-.02-.12.34-.15.45-.21.06,0,.11,0,.17.01-.01.01-.03.02-.03.04.1.12.24.07.39-.02.27.02.54.03.81.05,0,0,0,0,0,0-.17.07-.63-.09-.59.16.42.34.83-.03,1.34.25-.03-.16,0-.27.05-.35.07,0,.14,0,.21.01.13.21.48.26.67.04.28.22-.08.37.16.56.04-.31.68-.29.69-.39-.11,0-.2-.03-.23-.13.32.02.64.04.95.06-.01.06,0,.1.12.13,0-.04.02-.08.03-.12.61.04,1.21.07,1.82.11-.03.06-.04.09.08.21.08,0,.16-.01.24-.02,0-.07,0-.14.11-.12,0-.03,0-.03,0-.06.26,0,.49,0,.69-.05-.03.06-.06.12-.09.18.24,0,.32-.15.38-.31.14-.06.28-.11.4-.21-.05.05-.09.11-.08.24.77-.29,1.46-.19,1.96-.27-.01.07-.03.13-.02.24,0,.04.33.12.36.08.14-.23.25-.49.37-.75-.12,0-.23,0-.34.03.05-.12.11-.24.11-.3-.63.04-.9-.5-1.32-.02-.05-.17-.14-.34-.2-.5,0-.01.01-.02.02-.03.08-.17.18-.26.28-.33.02.03.03.06.08.06,0-.03,0-.08-.01-.11.36-.17.85.2,1.44,1.12.38.05.66-.08.92-.27.11.03.23.02.33-.12-.07.02-.11,0-.17-.01.22-.19.43-.41.67-.58.49-.35,1-.66,1.5-.99.04-.01.1-.02.16-.03.02,0,.04,0,.06,0,0,0,0-.01,0-.02.08-.01.17-.03.28-.04.12-.6.45-.37.88-.98-.6.27-.96.25-1.43.12,0,.06-.06.09-.09.13-.02-.05-.05-.07-.08-.1.02-.03.06-.05.12-.05-.1-.03-.19-.05-.31-.09,0,.02,0,.04,0,.06-.82-.19-1.67-.31-2.51-.37-1.89-.14-3.78-.27-5.67-.4.05-.16.19-.24.33-.33-.08-.16-.64-.43-.4-.54.3,0,.39.18.6-.04.01.15.02.3.04.46.9-.67,1.53-.3,2.5-.18.09-.41.44-.01.58-.27-.11-.03-.55-.27-.26-.32.51-.12.7.52,1.09.15-.01.26.06.42.27.44-.02-.43.53-.12.19-.58.26.22.46-.05.69-.16-1.75-.38-3.51.24-5.4-.31-.03.2.2.28.03.34-.54.07-.84-.34-1.33-.13-.06.54.39-.1.37.2-.38.41-.84.18-1.42.22.02-.19-.11-.35-.27-.44.43.06.59.49.95.04-.31.04-.82-.3-.96-.05-.17-.1-.38-.11-.48.04.29,0,.05.37-.09.35-.36-.22-.67.25-.85-.17.38-.04.92.05.81-.4-.75.01-1.09.11-1.45-.12.04.25-.07.37-.33.37-.44-.6-1.32.16-1.65.35-.14-.24-.37-.38-.6-.52.34,0,.68.02,1.02.02.14,0,.32-.2.42-.35.05-.08-.03-.36-.05-.36-.04,0-.07-.02-.1-.03.04-.05.04-.11-.07-.17.07.18-.44.02-.49-.08.26.11.55-.22.22-.24-.17.11-.22.2-.25.29-.57-.32-1.08-.89-1.66-1.18.11.03.22.07.29.1.37,0-.33-.31.09-.35.5.05,1.11.29,1.45.13.03.13,0,.32.14.33.31-.86,2.08.11,2.49-.29-.13.01-.31-.03-.13-.1.41-.05.23.56.64.52.08-.27-.45-.46-.16-.56.29.38.15-.02.47-.15.24.24.67.17.63.41.82-.83,1.89.1,2.63-.07.06.42.52.41.88.51.01-.42-.59-.17-.64-.52,1.13.13,2.61-.46,3.65-.83.11.3-.22.25-.2.47.45.05.23-.45.56-.5.62.45,1.38,1.09,1.94.32-.18,0-.44.07-.48-.08.32-.02,1.2-.64,1.67-.12-.11.16-.08.43-.32.48-.09-.15-.27-.19-.49-.19.08.35-.3.32-.31.59.46.13.21-.33.58-.27.03.31-.18.24.04.45.14-.26.92-.36.67-.62.35.48,1.23-.29,1.69.22-.09.29-.64-.26-.58.27.22.06.66.03.95-.07.05-.5-.23.11-.26-.21-.13-.5,1.1-.44.78-.74-.65.49-1.68.01-1.76.47-.29-.3-.82-.33-1.01-.73.43-.01.34-.06,1.06-.19.12.34,1.03,1.08.97.16-.4.12-.53-.07-.62-.3.42.25.5-.38.95-.07-.11-.5-1.04-.06-1.19.08,0-.15.14-.17.09-.35-1.48.3-2.47-.05-3.74-.42.03.59.83.32.9.85-.12,0-.13.1-.23.13-.05-.36-.42-.36-.86-.28.01-.39-.24-.47-.41-.66-.48.78-1.57.35-2.26.16-.01-.15.2-.12.22-.24-.75-.12-1.19-.05-1.29.32.03-.24-.72.3-.84-.05.06-.08.46-.38.08-.46-.17.35-.74.38-1.28.43-.06-.26-.16-.48-.4-.54-.33.2.29.51-.07.69-.32-.44-1.06-.02-1.48-.58.09.29-.02.41-.33.37.03-.13.17-.77-.03-.45.13.4-.88.34-.83.06.96.01.35-.68,1.13-.88,0,.11.11.13.14.22.02.23-.31.17-.2.47.56.02.55.3.95-.07.23.23.43.17.28.55.45.01.18-.56.55-.61.28-.02.37.17.72.06,0,.11.02.23.03.34.6-.26.28.02.81-.4.48.12.61.44.66.75.23-.1-.08-.63.18-.7.67-.01.95-.25,1.44.01.01.19-.33.09-.34.25.16-.01.32-.02.48-.03.04-.37-.25-.34-.04-.57-1.26.4-2.36-.26-3.45.25-.11-.12-.18-.29-.16-.56-.57.12-1.07.22-.33.37-.17.07-.29.19-.46.26-.04-.5-.7-.53-.61-.18-.04-.4-.38.27-.37-.09-.2-.35.58-.31.92-.52-.43-.31-1.23.14-1.78.24.41-.52-.87.05-.98-.27,0-.2.76-.28.32-.48-.43.38-1.01.22-1.38.78-.76-.73-2.01.82-3-.13-.14.35-.76.21-1.07.08.03-.26.7.01.44-.49-.4.07-.65.24-.8.51-.24-.02-.26-.29-.5-.31.02.21-.57.44-.58.27,0-.13.18-.14.35-.14,0-.29-.21-.34-.39-.43,0,.17.07.42-.08.46-.23-.51-.94-.73-1.64-1.02.04.57-.72-.17-.56.5.42,0,1.07-.36.6.07.36.26.71-.21.96.05,0,.08.01.15.02.23-.61.1-1.14-.55-1.68-.11.14,0,.34-.04.37.09-.12,0-.14.1-.23.13-.23-.03-.13-.43-.5-.31.41.6-1.23.01-1.13.88-.28-.41-.21.09-.71.05,0-.11-.11-.13-.14-.22-.02-.21.58-.43.19-.58-.05.28-.77,0-.69.39.19-.1.53.19.26.21-.44.15-.59-.65-.97-.16.13.02.3.17.14.22-.62-.33-.97-.06-1.57-.12.31-.17.81-.18.92-.52-.52.12-.82,0-.98-.27-.07.41.35.56-.07.69-.07-.34-.66-.09-.75-.4.24.39-.35.61-.07.69.31-.42.1.28.26.21-.07-.18.63-.23.6-.04-.31-.03-.84.28-.57.38,0-.28.39-.05.37.09-.23.26-.34-.03-.71.05-.1.22.39.35.04.45-.71-.05-1.26-.36-2.16-.07.39-.31-.66-.41-.29-.66.33.16,1.01.27,1.18-.2-.58.16-1.6.26-2.04-.08.73-.17.9-.09,1.45.13-.08-.61.14-.75.25-1.39-.38-.06-.83.37-.69.39.31.13.34-.48.47-.15-.03.33-.21.53-.55.61-.29-.36-.5-.05-.97-.16.15-.46-.33-.21-.39-.43.21-.23.3-.03.59-.04-.15-.71-.48.02-.83.06-.02-.2,0-.35.08-.46-.22.03-.39.1-.46.26.54.11-.02,1-.65.85-.2-.25-.27-.19-.16-.56-.23-.01-.25.15-.47.15,0-.41-.49-.27-.53-.65-.44.17-.57.03-.69.39.13.32.44,0,.49.19-.01.18-.56.45-.71.16-.02-.37.26-.62-.29-.66.32.58-.17.09-.33.37.2.19.46.32.42.77-.07,0-.12,0-.19,0-.22-.09-.44-.18-.66-.28.19-.05.37-.12.45-.27-.31-.22-.7-.11-1.07-.05-.11-.06-.21-.13-.32-.19.12-.13.18-.36.37-.48-.3-.13.19-.36-.15-.45.04.28-.16.37-.32.48-.08-.35-.74-.47-.54-.76-.19.07-.42.18-.65.26-.05-.04-.1-.08-.15-.12-.04-.04-.11-.06-.16-.08.25-.4.99-.39,1.4-.65-.06.31.26.2.38.32-.18-.27.53-.31.08-.46-.18.43-.34-.18-.6-.07-.07.54-.81-.12-1.29.32,0-.17-.07-.42.08-.46.08.03.48.25.48-.03-.28-.02-.46-.15-.84-.05.03.2-.1.27-.34.25.16.32.1.41-.19.58-.09-.35.24-.48-.16-.56-.07.25-.19.47-.33.67-.02,0-.05,0-.08,0-.2-.02-.4-.05-.59-.07,0-.12.24-.38-.06-.41-.03.22-.08.33-.13.39-.26-.03-.53-.05-.79-.08,0,0,0,0-.01-.01.63-.06.09-.03.09-.35.12,0,.14-.1.23-.13-.17.33.54.28.49.08-.27-.03-.14-.6-.05-.68-.51.24-.85.26-1.03.65-.54-.06-1.05-.12-.89-.62.3-.04.31.23.5.31.48-.31.98-.44,1.27-.66-.32.2-.37-.47-.15-.45.37.13.9.46.84.06.25.63,1.02.31,1.14.83.42.03.39-.31.56-.5.04.29.46.15.62.3-.21.22.13.38.28.55-.01-.35.84.15.47-.15-.14-.05-.28-.1-.37-.2.38.03.45-.2.7-.28.02-.39-.54-.14-.41-.66.22.05.5.02.61.19-.28.09.33.2.27.44.5-.18.59-.03,1.19-.08-.03-.6-.54-.03-1.09-.15-.07-.87-1.06-.72-1.31-1.39-.39.13-.31.54-.71.16.01.19.03.38.04.57.38.03.24-.37.7-.28.17.1.45.08.5.31-.32.06-.41.2-.93.3.03-.4-.59-.09-.63-.41.21.81,1.05.37,1.52,1.03-.62-.14-1.47-.2-2.11-.99-.22.04.08.18-.1.24,0-.11-.22-.13-.24.02.23-.07.63.26.38.31-.32-.14-.77-.14-.99-.39.01-.17.24-.17.36-.24.14,0,.28,0,.42,0,.34,0,.69-.39,1.03-.73.27-.02.48-.04.74-.12-.02-.16.04-.25.09-.35-.16.02-.24-.06-.3-.16.01-.03.04-.06.04-.09,0-.03-.03-.08-.05-.12.63.31.65.7.98,1.35.39-.27-.09-.42.08-.58.2.3.5-.22.7-.28.34.03.63.08.9.12-.06.15-.1.3-.08.43.08.51.31,1.03.96.91.31-.06.81-.13.87-.32.06-.21-.1-.52-.34-.8-.02-.28.52-.1.44-.42-.59.19-.13.07-.15-.33-.29.07-.55.18-.83.26-.08-.06-.16-.11-.24-.15-.08-.13-.15-.28-.27-.36-.08.34-.2-.25-.48-.08-.07.33.19.28.16.56-.12,0-.14.1-.23.13-.1-.26-.2-.52-.52-.53-.03.2.2.28.03.34-.08-.2-1.03.31-.62-.3-.21,0-.59.16-.49-.19-.32.3-.7-.33-.92.13-.05-.06-.1-.12-.15-.13-.95-.16-2-.13-2.94-.31.03-.1.06-.2,0-.32-.17.02-.25.13-.29.27-.32-.08-.61-.2-.88-.36.03-.02.05-.03.08-.06-.31.03-.63-.28-.91-.36-.22-.1-.43-.2-.65-.27.83-.22,1.38.24,2.35,0,.12-.52.65-.3.53-.84.16.43.58.68.07.91.41.08.84-.37.56-.5-.18.1.25-.3-.38-.31.15-.19.39-.32.69-.39.24.2-.05.21.04.57.48.03.36.04.83-.06.28-.15-.28-.41.08-.58.25.22.53.4.88.51.53-.74,1.57-.34,2.36-.39-.04.27.25.77.39.43-.2-.14-.33-.37-.41-.65.44.17.54.34.96.05.03.6.61-.04.87.39.05-.17-.19-.58.07-.58.08,0,.16-.01.24-.02.06.41-.18.56-.17.92.47.14-.02-.51.45-.37.07-.33-.19-.28-.16-.56.53.08,1.11-.37,1.68.11.09-.45.46-.25.69-.39.2.07.02.56.39.43-.04-.21.11-.26.08-.46-.15,0-.28-.01-.26-.21.31-.82,1.49-.3,2.13-.27.16,0,1.11-.6.73.18.3-.14.76-.24.74.29-.25-.05-.36-.26-.73-.18.03.34-.28.41-.3.71.53-.12-.16.32.37.2.36-.07-.36-.56.07-.69.17.1.45.07.5.31-.17.04-.12.26-.21.36.23.05.88.25.96.05-.09-.19-.56.05-.61-.18-.03-.21.19-.94.1-.24.44,0,.06-.66.68-.51.06.19-.16.3.02.34.39-.01-.06-.29.32-.48.31.14.31.3.39.43.4-.35,1.44.17.8-.51.22.05.5.02.61.18-.34.12-.12.18-.08.46.66-.11,1.06.06,1.57.12.14-.27-.34-.4-.04-.45.05.29.19-.17.48-.03.03.17-.01.42.15.44.49-.05,1.07-.28,1.21.14-.17.07-.62-.09-.59.16.5.31.79-.35,1.19-.09-.01-.15-.02-.3-.04-.45.49,0,.88-.46.98.27-.51-.22-.93.43-.65.85.34-.01.78-.12.96.05.28-.17-.24-.33.08-.46.43.17,1.46-.51,2.02-.26-.13-.23-.62-.05-.63-.41.81-.42,1.83.26,2.4.06-.19-.12-.5-.11-.62-.3.55-.19,1.09.15,1.92.09.16-.01.09-.21.22-.24.51,0,1.19.55,1.39.93.09-.76-.58-.67-.91-.96.59-.3.81.29,1.31-.09-.1-.17-.58.07-.5-.31-.98.24-2.02.59-2.76-.03.81.18.29-.09.69-.39.36.02.96.41,1.1.26-.1-.02-.15-.09-.14-.22.35-.28,1.05.23.95-.07-.2.02-.31-.07-.38-.2,1.04-.32,1.64.17,2.25-.39.14.75,1.81-.2,1.96.55-1.18.09-1.79,0-2.62.19.22.27-.37.23-.57.38.65.52,1.55-.17,2.13-.38.02.15.17.15.14.33-.45-.05-.49.23-.94.18.13.19.04.61.4.54.01-.22-.15-.24-.15-.45.32-.02.63-.04.95-.07.29.75.02.73,0,1.48-.15,0-.18-.13-.37-.09.12.81-.57.95-.97,1.32.43.3.4-.46,1.05-.3,0,.14-.19.27.03.34-.09-.35.59-.08.44-.49-.3.04-.5-.02-.61-.18.16-.01.09-.21.22-.24.37-.12.38.15.61.19.02-.09-.01-.23.1-.24.03-.46-.41.15-.39-.43.47-.73-.02-1.58,1.09-1.33.32.57.8.27,1.45.13.02.16-.04.25-.09.35.26.03,1.3.27,1.3-.21-.04-.25-.29.17-.6.04.08-.37-.4-.13-.39-.43,1.02-.19,1.18.03,1.36.59,1.11-.07,1.69.22,3.25.23.14-.27-.34-.4-.04-.45.41.17.52-.09,1.07-.07-.12.17-.11.28.15.33.36-.41.61.36.7-.28.31.03.36.34.52.53.11-.16.08-.43.2-.58-.48-.08-1.06-.3-1.01-.61-.24.13-1.01.37-1.18.2.16-.32,1.01-.45,1.65-.37-.01-.14-.02-.29-.03-.43.37-.08.51.23.59-.16-.49-.41-.79.82-1.65.35.64.04.09-.3.32-.48-.71.11-2.39-1.02-.92-1.07.05-.39-.23-.4-.51-.42.09.29-.01.41-.33.37-.05.2.2.66-.06.69-.33-.07-.72-.17-.94.18-2-.47-4.34-.03-6.47-.11.47-.12.47-.12.95-.07-.06-.66.6-.3.69-.39-.35-.09.37-.14-.03-.34.93-.13,1.68.06,2.24-.5-.93.05.32-.73-.29-.66-.4.7-1.23.6-1.9.25,0,.13.04.32-.09.35-.41-.39.44-.42.67-.62-.44-.13-.86-.28-1.35-.36.09-.17.15-.37.45-.37.45.08.33.22.84.05.02.16-.04.25-.09.35.35,0,.35-.28.7-.28.01.19.03.38.04.57.28-.45.77-.71,1.37-.9-.78-.16-1.7-1.08-2.32-.63-.06-.19-.41-.67-.18-.78.51.23.52.35,1.08.04,0,.15-.14.17-.09.35.96-.06.46.77,1.49.69.19-.2.27-.49.55-.61-.3-.05-.06-.53.07-.58.24.22.46.28.23-.13.49.24,1.41,0,1.71.45.03.27-.18.35-.07.69-.61.35-1.71.2-2.49.29.03.21.11.37.27.44-.04-.25.07-.37.33-.37.13.26.13.3.04.57.29-.04.58-.06.61.18-.16.01-.32.02-.48.03.01.57.95.75,1.24.6-.18-.05-.3-.16-.38-.32.17-.04.19-.2.34-.25.47.06.18.39.4.54.22-.32.13.25.26.21.09-.17.15-.37.45-.37.03.17-.01.42.15.45,1.06-.95,1.91.52,3.21-.34.07.29.4.3.63.41-.06-.42-.34-.61-.44-1-.52.06-1.62.19-1.94-.32.25-.04.72-.3.96.05,0-.17-.08-.42.08-.46,1.32.17,3.06-.43,4.19-.07-.25-.01-.07-.5-.28-.55-.4.48-1.01.38-1.44-.01-.74.42-2.07.29-2.84.43-.09-.63-1.18-.7-1.05-1.18-.33-.05-.93.21-1.08-.04.33-.05.31-.38.56-.5-.3-.08-.54-.23-.97-.16,0-.29.2-.37-.15-.44-.97.09-2.11.32-3.14-.35.11-.66.99-.33,1.39-.56-.47-.19.57-.01.46-.26-.33,0-.33-.69-.06-.79.26.08.44.25.41.66.3-.04.61-.06.57-.38-.66.25-.17-.59-.4-.54-.05.17-.16.29-.33.36-.09-.66-.65-.02-.83.17-.39-.32-1.65.51-2.29-.18.33-.16.61-.28.94-.18.08-.47.42-.72.89-.86.26.21-.04.23-.08.46.34-.07.75-.74,1.06-.19-.21.01-.68.34-.45.37.63-.37,1.21-1.09,1.82-1.16,0-.2-.05-.35-.15-.45,1.07-.25,2.19-.94,2.73-.31.4-.1,1.12.07,1.3-.21-.42-.07-.48-.62-.76-.52.39-.17.67-.44.9-.75.15.33.86.04,1.1.26.11.3-.57-.04-.46.26,1.29.69,3.43-.04,4.71.58-.24.35-1.06-.25-1.17.31.47.24,1.07.06,1.7.33.12.41-.15.52-.56.5-.05-.67-1.62-.22-1.16-1.06-.55.3-1.23.4-1.68,0-.23.06-.06.45-.45.38-.05-.22.14-.24.21-.36-.61.54-2.84.24-3.65.83-.03-.21-.11-.37-.27-.44-.06.27-.37.33-.43.6.43-.15.4.21.62.3.03-.16.58-.43.7-.17.06.26-.33.15-.33.37.1.02.23-.01.25.1-.09.03-.23.02-.23.13.54,0,1.16-.76,1.54-.22-.45-.09-.2.4-.44.49-.57-.23-1.42.22-1.65.34.75-.17.65.59,1.13.72-.44.2-.25-.3-.61-.19-.05.67.33.87.68,1.09-.33-.05-.21.25-.33.37.33.16.98-.05.64.52.36.01.92-.19.97.16-.21.25-1,.03-.92.52,1.99-1.48,3.01,1.52,4.94.45-.12.54.31.48.53.65-.17.43-.46.76-.75,1.08-.24-.2-.3,0-.59.04-.35-.17.01-.45-.39-.43,0,.2.05.35.15.45-.54.1-.73-.05-1.56-.12-.17.4-.5.41-.3.82.8-.21,1.15.21,1.89-.36-.27.25.44,1.17.64.53-.18,0-.44.07-.49-.08,0-.17-.08-.42.08-.46.49.08.8-.4.85.17-.17-.13-.45-.12-.47.15.42-.02,0,.21.38.32.27-.32,1.22-.42,1.55-.11,0,.11.02.23.03.34-.55-.2-.8.8-.58.27.89.25,1.23-.77,1.35-1.12.32-.07.14.41.39.43.01-.52.6-.57.89-.86-.19.06-.43-.39-.15-.45.75.18,2.18-.15,2.77.26-.09.21-.37.38.04.45-.01-.78,1.03.15,1.3-.21.06-.39-.5-.11-.4-.54.6.07.38-.54.79-.63.52.38,2.04.19,2.51-.07-.23-.38-.65.17-.86-.28.18-.24.08-.71.29-.93.22.13.83-.11,1.05-.3-.46-.07-.62-.24-.15-.45-1-.15-1.54.29-2.62.19,0,.21-.05.38-.2.47-.09-.19-.56.05-.61-.19-.01-.4.72-.19.67-.62-.35-.07-1.4.46-1.33-.13-.2.01-.4.03-.6.04.12.79-1.48.48-1.09-.15-.57-.07-1.43.18-1.47-.46.74.2,1.32.11,1.9-.25-.23-.03-.24-.31-.61-.18.11.3-.23.24-.33.37-.06-.26-.53-.07-.62-.3.07-.37-.21-.34-.28-.55.54-.37,1.18.05,1.68.11.03-.44-.7-.05-.75-.4-.01-.19.33-.09.34-.25-.14-.25-.85.12-.97-.16.28-.16.79-.13.8-.51.42.11.77.3,1.12.49-.27-.4.56-.51.63-1.19-.55.46-1.34,1.05-1.89.25-.58.18-1.53.28-1.92-.09.3-.14.55-.33.67-.62-.28-.47-.91.39-1.31.09.14-.02.28-.05.22-.24-.35,0-.39.24-.57.38-.23-.05-.64-.51-.3-.78,1.51.35,2.79-.12,4.35.49-.92.27-1.98-.54-2.37.28.54-.34.79.3,1.06-.19.52.16.63.66,1.11.38-.41.13-.15-.28-.03-.34.39.11.35.11.85.17.04-.6,1.12-.35,1.12-.99-1.11.72-2.4,0-3.39-.44-.32.19.24.45-.08.58-.18-.05-.3-.16-.38-.32.31-.58-.1-.42-.44-.99.66-.23.43.51.88.51.3-.08.73-.6.93-.41.01.15-.2.12-.22.25.18.05.31.15.49.19-.05-.26,0-.43.2-.47.12.56.42.94,1.03.95.03-.2-.2-.28-.03-.34.43.23,1.1.18,1.47.47.2-.38.54-.03.93-.3.01.52,1.06-.1,1.11.38.02-.09.09-.14.23-.13.08-1.12-1.62-.27-1.98-.89.67.03.43-.26.09-.35.9-.63,1.99.79,2.04.08.3.01,1.12.57.98.27-.56-.15-.11-.08-.16-.56-.14-.23-.73.3-.96-.04,0-.16.85-.13.46-.26-.52.11-.49.02-.82.29-.19-.12-.22-.42-.4-.54-.18.1.07.55-.32.48-.25-1.21-1.76-.43-2.47-.96,1.64-.45,3.23-.18,4.4-.31-.12,0-.16-.19-.02-.23.12,0,.24-.02.36-.02-.02.26.05.43.16.56.45-.29.53.23.98.27.88-.33,3.19-.2,3.96.06.59.02,2.63-.28,3.27.45,0-.17-.07-.42.08-.46.61.15,2.42.4,2.43.4.06-.15-.12-.43.08-.46.25.1.31.4.52.53.56-.75,1.39.37,2.14-.15-.18-.55-.54-.14-.48.03-.22-.05-.5-.02-.61-.18.5-.02-.02-.17-.03-.34.17-.14.29-.15.48-.03-.06-.89-1.27-.01-1.79.01-.58.02-.36-.83-1.01-.73-.02.22.18.21.26.32-.52.18-1.18.45-1.56,0,.41-.1.07-.48-.27-.44-.21.28-.41.14-.81.4.29-.55-.72-.05-.29-.66-.62.05-.19.34-.56.5-.35-.45,0,.09-.47.15-.08-.23-.37-.2-.15-.45-.67-.05-1.03.33-1.55.11-.11.16-.17.36-.32.48-.49-.11-.98-.23-1.68-.11,0-.87-1.78-.7-2.38-1.31,0,.14.05.32-.09.35-.32-.01-.3-.65-.62-.3-.06.39.5.11.4.54-.63.16-1.69.52-2.37.28.41.11.65-.45.44-.49-.28.19-.45.48-.92.52.11-.16.08-.43.19-.58-.65-.11-1.31.23-1.79.13.01-.13.12-.19.22-.24.84-.16,2.2.3,2.61-.3-.84.23-1.94-.29-2.98.1,0-.63-1.58.3-1.95-.43-1.21.58-3.4.28-4.32-.15.09-.03.13-.1.1-.23-.3.03-.56.1-.7.28.15,0,.29.01.26.21-.83.06-1.06-.09-1.56,0,.05-.17.15-.3.2-.47-.7.2-.74-.33-1.45-.12.09.31.41.29.04.57,0-.32-.36-.26-.51-.42-.22.19.25.46-.2.58-.77-.03-.77.1-1.54.22.03-.45-.75-.37-.42-.77-.74-.02-.93-.28-1.3.21.16-.36-.28-.43.06-.8-.23-.01-.25.15-.47.15.07.25.32.6-.07.69-1.31-.15-2.96-.49-3.82.16-.02-.2,0-.36.08-.46-.2.01-.4.03-.6.04.1.29-.02.41-.33.37.26-.49-.27-.19-.29-.66.52-.33,1.01.12,1.69.22.19-.56,1.26-.53,1.77-.31-.68-.48-2.08-.41-2.53-.21-.74-.25-1.39-.6-2.32-.63.1.3-.23.24-.33.37-.06.35.23.32.17.67.46.13.2-.33.58-.27-.13.55.52.25.42.77-.57-.06-1.39-.5-1.55.11-.2.01-.4.03-.59.04.11-.16.08-.43.19-.58-.68-.01.15.6-.55.61-.24-.18-.29-.46-.48-.08-.39-.36.21-.63-.06-.8,0,.19-.8.25-.83.06-.05-.26,0-.43.2-.47-.15.59.71-.1,1.07-.08.15.16.19.45.4.54,0-.55.66-.09.83-.06-.15-.73-.83-.53-1.12-.6-.03-.35.41-.1.56-.5-.48.13-.97.47-1.2-.03-.03.29-.84-.05-.56.5.36.13.58-.35.71-.05-.43.54-.77-.02-1.21-.14-.12.38.39.06.27.44-.12,0-.13.1-.23.13-.64.08-.75-.17-1.24-.48-.34.09.2.16.15.33-.16,0-.26.07-.35.14-.18-.09-.39-.14-.39-.43-.06-.3.46-.12.32-.48-.46.12-.61.16-.96-.05-.24.12-.17.5-.56.49-.24-.02-.26-.29-.5-.3-.17.18-.87.36-1.43.1-.11.23-.38.32-.56.5.59.07.84-.2,1.09.15-.14.07-.26.14-.34.25.3,0,.36-.2.58-.27-.09.71.75.04.86.28-.03.16-.15.23-.08.46.66-.34,1.71-.55,2.16.07-.17-.66,1.25-.23.74.29.62-.05.19-.34.56-.5.07.21.28.27.28.55-1.06.66-1.75.23-2.77-.26-.74.37-1.06.14-1.53.34,0-.11-.02-.23-.03-.34-.05.32-1.31.19-.92.52.24-.3,1.01-.14,1.09.15-.75.13-1.16-.11-1.91.02.15-.38-.05-.32-.28-.55.09.66-.73.5-.59.16-1.04.16-2.24-.29-3.46.13-.26-.43-.95-.42-1.33-.13-.02-.16.04-.25.09-.35-.48.16-.6-.08-.74-.29-.44.34.5.38.16.56-.32-.1-.74-.09-.87-.39-.83.01-2.64.42-3.35,0-.7.4-4.73.63-3.24-.11-.84-.05-1.85.17-2.38.17.58-.08-.23-.06-.04-.45-.34.12-.4.17-.6-.07-.01.53-.82-.13-1.05.3.07,0,.14.08,0,.11-.09-.3-.12-.28-.29-.66.28-.31.39-.09.82-.29-.25-.38.06-.38.18-.7-1.55.28-1.3.11-2.64-.04-.04.42.58.1.63.41-.2.01-.4.03-.6.04.03.21.11.37.27.44-.06-.42.37.05.45-.37.18.09.47.06.39.43-.21.04-.61-.07-.46.26.3-.11.53-.21.72.06-.63.44-2.19-.04-3.08.45-.39-.37-2.61-.44-2.5.18-.27-.25-.19-.18-.4-.54.39-.14,1.32.16,1.29-.32-.54.12-1.34.3-.86-.28-.34,0-.25.36-.57.38-.01-.15-.02-.3-.03-.46.26,0,1.16-.02.7-.28-.2.33-.76.03-.96-.05-.19.24-1.5.4-1.69-.22.02-.13.12-.19.22-.24.4,0,.98.29,1.07-.08.16.14.19.41.04.57.59,0,.04-.34.32-.48.19.22.4.45.6.07-.33-.34-2.45-.56-3.12-.12-.51-.44-1.97.43-2.21-.76-.31.13-.93.11-1.1-.26-.37-.06-.21.33-.58.27-.71-.21-.58-.65-.94-1.3.06.63-.92.58-1.29.32-.01-.15.2-.12.22-.24-.44-.36-.58.63-.95.07-.27-.35.66-.21.21-.36-.39.29-.58-.33-.82.17-.21-.06-.22-.33-.39-.43-.24.47-2.45.52-2.18-.3-2.22.53-5.41-.46-7.45-.38.03-.22,0-.49.32-.48.04.15.22.51.48.08-.21.03-.29-.09-.26-.32.38-.16.76.29.95-.07-.35-.02-1.18-.13-1.45-.13-.06.12,0,.53-.3.71.14-.83-.49-.05-.75-.4.35-.18.03-.68-.15-.45.29,0,.05.37-.09.35-.49-.1-.65-1.18-1.01-.73-.03.27.54-.1.38.31-.11.47-.74-.02-1.08-.04-.14.69-.7.92-1.38.78.52-.06.2-.21.19-.58-.73.02-1.26.17-1.93-.2.22-.04,1.18,0,.82-.17-.64.17-.71-.29-.4-.54-.55.25-.58-.2-1.06.19-.02-.14-.16-.15-.14-.33.01-.2.18-.27.46-.26-.42-.47-.57-.52-1.02-.84-.14.29.5.32.15.44-.37-.07-.44.1-.59.21-.11-.14-.22-.32-.34-.34-.04,0-.08.04-.13.07-.21-.06-.48-.04-.63-.16.5-.52,1.06.38,1.3-.21-.32.03-.75-.12-.64-.53.28-.09.87.08.94-.18-.6-.17-1.07.06-1.25-.71-.16.51-.97.04-1.4.44-.22-.22.07-.23-.15-.45-.36.22-.52-.39-.6-.07.29,0,.05.37-.09.35-.04-.29-.42-.2-.73-.18.06-.35-.23-.32-.17-.67-1.05.36-1.81-.24-2.73-.26-.09-.08-.25-.19-.41-.28,0-.14,0-.27-.15-.25-.03.06-.08.1-.12.14-.02,0-.05-.02-.08-.03-.17-.02-.35-.04-.53-.05,0,0,0,0,0,0-.53-.23-2.3.12-1.73-.68-.42.36-1.47.65-1.44-.01-.29.08-.16.35-.16.49-.09,0-.17-.02-.26-.03-.55-.32-1.12-.36-1.68-.36-.48-.16-.96-.36-1.42-.66-.56.44-1.09.76-1.3.02.96-.18,1.69-.13,2.84-.12.04-.61-.63-.45-.67-.98,2.65-.9,4.96-1.37,7.37-.64,2.72-.39,5.58.25,8.06-1.03,1.57-.07,3.78-.39,5.61-.17-.79-.85-2.71.23-3.63-.54.07-.26.06-.59.18-.81-.73-.22-1.39-.51-1.76-1.13-1.32.22-2.77-.34-3.67-.99-.37-.06-.2.33-.58.27.03-.28-.24-.23-.16-.56-.35.19-.8.17-.97-.16-.7.45-.7-.23-1.42.21,0-.11-.02-.23-.03-.34-.73.07-1.34-.17-1.95-.32.33-.55.74-.98,1.53-.84.08.01.21-.23.31-.35-.14-.13-.26-.35-.41-.37-1.62-.16-3.24-.31-4.86-.43-1.66-.12-3.25-.3-4.2-2.07-.93-1.73-2.49-2.03-4.19-1.99-.63.01-1.01-.42-1.06-1.04-.1-1.15-.5-1.21-1.3-.57-.52.42-.93,1.32-1.71,1-.81-.33-1.96-.78-2.16-1.45-.41-1.32-.96-1.94-2.24-1.85-1.23.09-2.41-.21-3.71.37-.96.43-2.08-1.21-3.37-.68-.17.07-.33.19-.44.33-.03.04.09.3.19.37.45.28.98.46,1.35.82.19.19.24.74.13,1.03-.1.28-.47.54-.77.63-.33.1-.77.13-1.07-.02-1.61-.81-3.29-1.29-5.06-1.5-.14-.02-.26-.25-.39-.39.25-.2.48-.52.76-.58.69-.14,1.98.21,1.96-.37-.05-1.18-1.31-.78-2.07-.83-4.35-.28-8.7-.48-13.05-.76-.98-.06-1.7.46-2.53.8-1.17.48-1.76-1.22-2.9-1.15-.89.05-1.78.1-2.66.23-.45.06-.75.75-1.38.16-1.08-1.01-2.3-.94-3.49-.11-.65.46-.95-.22-1.34-.5-1.68-1.19-3.05.81-4.63.47-1.66-.35-3.12-2.12-5.04-.66-.38.29-1.04.13-1.54.27-1.03.29-1.63-1.55-2.89-.52-.91.74-2.11.17-3.18.13-3.99-.16-7.98-.34-11.97-.53-1.26-.06-2.48-.26-3.66.57-.67.46-1.38-.04-1.85-.69-.72-1.01-1.5-1.62-2.59-.53-2.14-.08-4.08,1.14-6.28.96-5.97-.47-11.95-.92-17.94-1.09-1.57-.04-2.65-1.8-3.98-1.2-1.43.64-2.78.78-4.21.63-1.65-.18-2.92,1.32-4.7.89-1.73-.41-3.57-.35-5,1.32-.38.45-1.33.46-2.02.47-1.45.02-2.93.08-4.35-.19-1.39-.27-2.34.64-3.5.98-.14.42-.22.97-.82.75-.17-.06-.23-.46-.32-.76-2.49.76-4.88,1.95-7.56,1.88-.32,0-.73.11-.94.34-.21.23-.32.67-.3,1.01.02.51.32.68.64.47.65-.44,1.27-.84,1.4.46.02.19.01.42.11.54.21.25,3.8,1.67,4.11,1.5.62-.33.94-.25.95.47,0,.32-.22.91-.41.94-1.36.23-1.96.67-.83,2.04.16.2.11.78-.05,1.06-.54.91-.89-.02-1.19-.28-.5-.42-1.04-.47-1.46-.16-.73.52-1.48,1.07-1.74,2.09-.33,1.33-1.41.83-2.22.97-1.18,1.34-1.57,1.35-2.14.12-.15-.32-.12-.74-.28-1.05-.22-.42-1.24-.55-1.41-.18-.1.22,0,.64.14.87.27.42.33.86,0,.88-1.75.1-2.58,1.99-4.21,2.32-1.32.27-.12,1.23-.28,1.49-.66,1.07-.34,1.93.04,2.94.23.59-.28,1.24-.79,1.21-2.87-.17-3.82,1.37-3.78,4.2.02,1.39-1.18,1.91-2.86.85-1-.63-1.49-.24-2.22.08-.8-1.09-1.47-.53-2.11.2-.8.93-1.42.5-2.22-.12-.63-.49-1.38,0-1.55.87-.14.73.06,1.52-.54,2.15-1.01,1.07-2.52,2.03-2.85,3.32-.47,1.82,1.73,2.67,2.44,4.18.08.17.25.33.26.5.04.96.03,1.92-.75,2.63-.53.48-.97,1.21-1.81.92-.29-.1-.68-.41-.73-.69-.14-.73-.27-1.39-1-1.64.35-.61.82-1.18.98-1.84.1-.42-.21-1.05-.5-1.45-.12-.18-.74-.17-.98,0-1.76,1.19-2.52,3.07-2.97,5.13-.14.61.1,1.25.59,1.4,1.07.33,1.64.62.57,1.71-.5.51-.89,1.13-1.3,1.73-.09.13-.07.38-.02.55.05.17.2.31.3.47,1.44-1.4,3.48-.17,4.98-1.28.11-.08.13-.27.18-.44.16,0,.33-.03.48,0,1.53.3,1.42.26,1.14,1.08-.78,2.28-2.57,3.59-4.15,5.12-.51.5-1.16.87-1.21,1.77-.13,2.41-1.6,3.61-3.6,4.31-.48.17-.96.47-1.35.82-.35.31-.99.68-.37,1.31.36.37.8.92,1.21.92.67,0,1.33-.48,2.01-.56,1.32-.15,1.98.66,1.64,2.09-.16.69-1.02,1.38-.91,1.91.18.88.82,1.64.71,2.67-.12,1.12-.65,2.47.13,3.32.97,1.07-.64,1.95.15,2.96.71.91.23,2.12.28,3.21.3-.1.68-.15.8-.36.56-.95,1.02-1.97,1.54-2.95.16-.3.41-.54.62-.81.14.52.33,1.03.42,1.56.06.37-.07.76-.05,1.14.04,1.45.22,1.67,1.51,1.73,1.06.05,2.12.28,3.06-.63.57-.55,1.13-1.48,2.23-.59.67.54,1.69.55,2.42,1.03.32.21.41,1,.4,1.52-.04,1.92-.51,3.9-.17,5.72.36,1.97.63,4.02,1.56,5.9.36.73.07,1.82.05,2.75-.34,0-.68.01-1.02,0q-1.84-.04-2.29,1.96c-.27,1.18-.45,1.27-1.24.54-.54-.5-1-1.17-1.62-1.48-.33-.16-1.19.14-1.35.48-.54,1.15.06,2.97.96,3.53,1.32.81,2.79.46,4.19.55.91.05.85-1.04,1.29-1.52.74-.8,3.43-.61,3.98.08.06.08.11.13.14.16-.09-.05-.25-.07-.39.27-.2.5-.49.96-.7,1.46-.06.14.03.36.08.53.15.51.39.51.8.16.56-.48,1.36-1.02,1.85-.27.51.78-.56,1.11-.93,1.64-.21.3-.59.51-.72.83-.13.31-.14.76-.03,1.08.22.64.83.69,1.34.59.32-.06.56-.48.88-.63,1.06-.51,1.55-.23,1.82,1.01.08.34.05.72.06,1.08.29.18.71.36.71.53,0,1.56.59,2.88,1.11,4.29.46,1.26.88.52,1.51.37.85-.21,1.77-.17,2.65-.18.88-.01,1.3.48,1.22,1.42-.13,1.56-.22,3.1,1.19,4.17,1.16.87,2.3,1.78,3.46,2.65.06.05.3-.19.46-.27,1.57-.8,3.08-.84,4.54.33,1.25,1,3.16.52,4.14,2.36.84,1.58,2.16,2.78,3.95,1,2.09.35,4.36-.4,6.26,1.2.4.34.99.4,1.48-.07.78-.74,1.65-.82,2.41-.03.56.58.92.12,1.36-.08,1.56-.7,2.83-.27,3.76,1.2.53.84,1.01.81,1.7.15.65-.62,1.26-1.34,2.31-1.33,1.61.01,3.32.71,4.82-.1,1.44-.78,2.82-.41,4.25-.38,1.64.04,3.27.09,4.91.14.73.02,1.6.35,2.16.04,2.62-1.45,5.34-.45,8.01-.57.72-.03,1.64.33,2.14-.02,1.35-.96,2.78-.93,4.2-.69,1.7.28,3.17-.94,4.7-.81,2.08.19,3.96-.24,5.7-1.19,1.81-.99,3.45-.99,5.09.15,1,.69,2.09.55,3.15.56,1,.01,1.86-1.56,2.95-.48,1.11,1.1,1.9-.42,2.95-.22,1.42.28,2.9.18,4.35.24,1.63.07,3.3-.04,4.89.28,1.57.31,2.67-1.06,4.14-.89,1.44.17,2.9.19,4.35.27,1.27.07,2.81.62,3.75.05,1.57-.95,2.62.36,3.93.32,3.02-.09,6.11,1.15,9.06-.48,2.36.13,4.73.14,7.08.43,1.47.18,2.92,1.37,4.17-.56.46-.71,1.35-.29,2.05-.27,1.27.04,2.54.18,3.81.23,1.14.04,2.16,1.62,3.39.27,1.33.28,2.42-.51,3.59-.91.16-.06.46-.06.52.04,1.04,1.56,2.6-.58,3.31.32,1.02,1.3,2.25-.43,3.34.76.77.83,2.41.75,3.58.04,1.77-1.08,3.98.04,5.66-1.38,1.57.26,3.15-.08,4.72.87,1.57.95,3.46,1.09,4.92-.66.68-.81,1.56-.78,2.49-.72,2.72.19,5.45.28,8.17.46,1.09.07,1.54-.45,1.93-1.49.28-.73,1.16-.85,1.81-.2.72.72,1.4,1.12,2.36.4.4-.3,1.27-.64,1.41-.47,1.63,1.9,3.27-.75,4.92.09.71.37,1.4-.28,1.88-.84.81-.96,1.77-1.11,2.94-1.03,4.17.28,8.35.42,12.52.7,1.33.09,2.41-.49,3.61-.82,1.65-.47.75-1.07.45-1.88-.31-.84.22-1.51,1-1.59,1.75-.17,3.61.62,5.26-.74.21-.17.93.36,1.41.54.48.19.97.48,1.47.49.52,0,.44-.32.32-.76-.38-1.34.15-2.14,1.23-2.14.99,1.57,1.81-.37,2.81-.17,1.24.25,2.54.14,3.81.21,2.18.11,4.36.28,6.54.32.45,0,1.25-.34,1.31-.65.22-1.21,1.09-1.34,1.92-1.64.12-.04.28-.29.25-.36-.06-.16-.23-.39-.37-.4-2.34-.2-4.7-.27-7.03-.6-1.14-.16-2.02.82-2.94.6-.99-.24-1.82-1.12-2.76-1.64-.46-.25-1-.41-1.51-.46-1.45-.14-2.9-.21-4.35-.3-1.63-.11-3.31-.01-4.88-.41-.94-.24-1.68-1.33-2.71-.14-.16.18-.7.03-1.05-.02-.34-.05-.79-.07-1-.3-1.43-1.6-2.53-.76-3.66.44-.3.32-1.03.91-1.09-.01-.09-1.34-1-1.99-1.63-2.88-.31-.44-.34-.69.04-.84.16-.07.34-.15.51-.14.54.04,1.22-.09,1.58.21,1.46,1.21,2.84,1.35,4.49.35.75-.46,1.76-.29,2.55.33,1.62,1.28,3.52,1.08,5.16.54,1.27-.42,2.44-.5,3.69-.43,2.72.15,5.45.31,8.17.43,2.17.1,4.34.16,6.51.21.15,0,.3-.21.44-.32-.24-.22-.45-.55-.72-.63-.52-.15-1.12-.03-1.61-.23-.76-.32-.83-2.47-.14-3.05.1-.08.15-.14.19-.19,0,.07.03.18.21.31,1.5,1.13,1.35-.08,1.46-1,.02-.17,0-.34,0-.51-1.1-.48-1.98-1.35-3.35-1.38-3.04-.07-6.08-.39-9.12-.59,26.9-1.03,53.78-2.79,80.6-5.28l-93.84.45c-.55-.4-1.05-.91-1.45-1.61Z"/>
    <path class="cls-3" d="m70.87,101.41c-.17-.17-.72-.24-.76-.17-.57,1.11-.28,2.58-1.33,3.49.26.19.49.51.77.55,1.57.23,2.1-.15,2.24-1.69.38-.86-.29-1.54-.92-2.18Z"/>
    <path class="cls-3" d="m336.75,33.67c.02-.07-.24-.35-.38-.35-1.05-.01-2.1-.03-3.14.07-.16.02-.29.44-.43.75,1.18.07,2.36.16,3.54.17.14,0,.32-.4.4-.65Z"/>
    <path class="cls-3" d="m332.81,34.15c-.06,0-.11,0-.17,0,0,.05-.02.08-.03.13.05,0,.09,0,.14,0,.02-.04.04-.08.05-.12Z"/>
    <path class="cls-3" d="m345.12,104.5c.65.08,1.33-.11,2-.21.05,0,.14-.26.1-.33-.02-.04-.05-.07-.07-.11.12-.17.36.12.65.07-.19-.37-.75-.32-.78-.86.02.23-.31.17-.2.47.15-.02.22.06.24.18-.06-.07-.13-.12-.19-.13-.83-.08-1.66-.12-2.49-.18,0,.57.27,1.04.76,1.1Z"/>
    <path class="cls-3" d="m77.86,114.01s.03,0,.06,0c0-.04,0-.08,0-.13-.03,0-.06.02-.09.03.01.03.02.07.04.1Z"/>
    <path class="cls-3" d="m76.8,114.9c-.15.65.12,1.1.71,1.21.31.06.66-.14,1-.22-.1-.32-.2-.64-.3-.95-.11-.31-.22-.63-.34-.94-.58-.01-.92.3-1.06.89Z"/>
    <path class="cls-3" d="m352.69,131.68s-.06-.04-.1-.06c0,.02,0,.05,0,.07.03.01.06.03.09.04,0-.02,0-.03,0-.05Z"/>
    <path class="cls-3" d="m354.7,132.25c.06-.17.04-.38.02-.57-.06-.67-.44-.98-1.06-.96-.59.02-.93.34-.97.96.42.27.85.51,1.24.83.35.29.59.25.77-.26Z"/>
    <path class="cls-3" d="m331.27,35.17c.7.1,1.23-.09,1.35-.9-.46-.02-.93-.06-1.38,0-.14.02-.27.39-.35.63-.01.04.24.25.38.27Z"/>
    <path class="cls-3" d="m330.04,120.9c.32.05.67-.12,1.04-.21-.21-.22-.39-.58-.6-.61-.31-.05-.66.14-.99.23.18.21.35.56.56.59Z"/>
    <path class="cls-3" d="m358.97,142.89s-.06.25-.01.34c.31.59.8.45,1.26.28.15-.05.26-.21.38-.32-.25-.19-.49-.38-.74-.57-.3.09-.6.16-.89.27Z"/>
    <path class="cls-3" d="m97.46,142.23c.11.26.25.67.43.7.73.15,1.26-.13,1.37-.95-.48-.03-.96-.08-1.43-.07-.13,0-.39.27-.37.32Z"/>
    <path class="cls-3" d="m99.27,141.99s.09,0,.13,0c0-.02,0-.04,0-.06-.03-.02-.07-.04-.1-.06,0,.05-.02.07-.03.12Z"/>
    <path class="cls-3" d="m114.66,36.71s-.23-.25-.36-.39c-.1.08-.38.23-.36.29.16.58.44.61.72.09Z"/>
    <path class="cls-3" d="m118.48,36.73c-.15.03-.23.44-.32.73.33.02.65.04.98.07-.01-.45-.06-.92-.65-.79Z"/>
    <path class="cls-3" d="m272.69,47.41c.03-.06-.19-.26-.3-.4-.13.11-.38.25-.36.32.14.56.4.6.66.08Z"/>
    <path class="cls-3" d="m107.83,42.12c-.12-.14-.22-.38-.36-.41-.12-.02-.28.2-.42.32.11.14.23.29.34.43.15-.11.29-.23.44-.34Z"/>
    <path class="cls-3" d="m108.53,50.76s.02.09.03.14c0,0,0,0,.01,0,.03-.03.05-.05.08-.09-.04-.02-.08-.03-.12-.05Z"/>
    <path class="cls-3" d="m107.83,50.37c.12.21.43.28.7.39-.07-.29-.11-.64-.29-.77-.29-.22-.6.07-.41.38Z"/>
    <path class="cls-3" d="m94.69,62.18c.03-.06-.2-.27-.31-.41-.14.11-.41.25-.39.32.15.57.42.61.7.1Z"/>
    <path class="cls-3" d="m75.45,86.94c.4-.16.48-.42.22-.67-.06-.06-.21-.02-.32-.03-.06.11-.18.24-.16.32.04.15.22.39.26.37Z"/>
    <path class="cls-3" d="m340.82,105.51s.09,0,.14,0c-.03-.04-.05-.06-.07-.1,0,0,0,0-.01,0-.02.04-.04.07-.05.1Z"/>
    <path class="cls-3" d="m73.97,93.81c.12.02.27-.19.41-.3-.1-.15-.21-.31-.31-.46-.14.12-.36.22-.39.36-.03.11.17.38.3.4Z"/>
    <path class="cls-3" d="m322.94,120.24c.1.05.19.1.29.15.12-.09.23-.19.35-.28-.1-.11-.2-.23-.3-.34-.11.15-.23.31-.34.46Z"/>
    <path class="cls-3" d="m474.52,92.5c.23.05.88.25.96.04-.23-.05-.88-.25-.96-.04Z"/>
    <path class="cls-3" d="m470.05,91.9c-.02-.15.04-.25.09-.35-.28.02-.37-.17-.72-.06,0,.36.5.19.63.41Z"/>
    <path class="cls-3" d="m467.37,91.3c.43-.01,1.05.4,1.33.13-.33-.09-.97-.48-1.33-.13Z"/>
    <path class="cls-3" d="m466.52,91.24c.32-.11.26.21.49.19.41-.36-.46-.68-.49-.19Z"/>
    <path class="cls-3" d="m463.74,90.87c.74.03,2.21.48,2.53.16-.82,0-1.8-.47-2.53-.16Z"/>
    <path class="cls-3" d="m451.06,101.7c.41-.09,1.14.09,1.17-.31-.44.29-.99-.16-1.17.31Z"/>
    <path class="cls-3" d="m451.97,99.58c-.25.06-.98-.17-1.31.09.74-.07.92.38,1.31-.09Z"/>
    <path class="cls-3" d="m450.69,101.61c-.72.05-1.46.07-1.89.36.43-.1,1.76.17,1.89-.36Z"/>
    <path class="cls-3" d="m445.24,99.26c.58-.16,2,.29,2.64.04-.83.08-2.18-.91-2.64-.04Z"/>
    <path class="cls-3" d="m441.35,60.07c-.3-.04-.29-.42-.74-.29.05.24.65.5.74.29Z"/>
    <path class="cls-3" d="m440.31,59c-.02.84-.73-.08-1.08-.04-.09.8,1.04.25,1.14.83-.08-.25.47-.58-.06-.79Z"/>
    <path class="cls-3" d="m440.53,103.36c.21.29,1.18.08,1.07-.08-.49,0-.79-.09-1.07.08Z"/>
    <path class="cls-3" d="m435.93,101.18c-.76.12-.87.26-1.55.11-.07.46-.04.56.3.78.34-.51,1.52-.21,2.11-.61-.44.07-.81.07-.86-.28Z"/>
    <path class="cls-3" d="m433.73,86.73c.08.32.29.5.64.52-.01-.4-.45-.33-.64-.52Z"/>
    <path class="cls-3" d="m430.55,101.22c.05.31.4.29.52.53.02-.15.15-.23.08-.46-.15-.09-.33-.13-.6-.07Z"/>
    <path class="cls-3" d="m429.14,101.66c.5-.09,1.31.08,1.28-.43-.37.07-1.12-.25-1.28.43Z"/>
    <path class="cls-3" d="m426.41,86.45c.82-.1,1.35-.13,1.64-.46-.65.24-1.72-.44-1.64.46Z"/>
    <path class="cls-3" d="m426.6,82.79c-.13-.11-.87-.18-.95.07.38-.16.76.29.95-.07Z"/>
    <path class="cls-3" d="m423.24,104.25c-.17.52.66.36.6.07-.27.05-.46.01-.6-.07Z"/>
    <path class="cls-3" d="m421.13,101.78c.23.19.67.01.82-.17-.24.08-.79-.08-.82.17Z"/>
    <path class="cls-3" d="m409.98,59.91c2.28-.3,4.08.24,6.46-.12.19.17,1.38.36,1.32.02-.41-.12-.59-.5-1.12-.49-1.73.23-4.88.04-6.81.14.02.17.3.18.15.45Z"/>
    <path class="cls-3" d="m418.84,86.08c-.09-.02-.15-.09-.14-.22-.18.03-.44,0-.47.15.85-.01-.23.2-.07.58.32-.09.54-.27.68-.5Z"/>
    <path class="cls-3" d="m419.21,104.76c.28-.06.5-.15.57-.38-.39-.07-.35.2-.58.27.01-.26-.06-.42-.27-.44,0,.14-.18.14-.35.14.01.36.34.37.63.41Z"/>
    <path class="cls-3" d="m407.9,104.09c.54,0,.73.11,1.06-.19,1.71.88,4.19.95,6.26.47.16.23.54.23.75.4.7-.36,2.35.36,2.36-.4-1,.23-2.69-.11-4.07-.05-.65.02-1.39.33-1.68-.11.16.02.24.14.49.08-.15-.71-.9.05-1.1-.26.4-.07.13-.32.59-.15.01-.3-.27-.28-.5-.31-.17.2-.9.29-1.07.08-.18.24.02.14.04.45.34-.08,1.19-.1.74.29-.25-.54-1.02.04-1.33-.25.15-.09.2-.26.2-.47-.45.1-.37.02-.57.38-.34-.14.21-.52-.27-.44-.42.02.11.35-.58.27.19-.34-1.23-.28-1.3.21Z"/>
    <path class="cls-3" d="m404.2,85.76c2.23.26,3.7.62,6.51.56.17-.18.18-.49.43-.6-.19.63,1.03.06.53.65.56.06,1.04.07,1.42-.22-.6.13-.27-.28-.15-.45-.21.02-.37,0-.49-.08-.27.19-.08.49-.19.58-.46-.12-.39-.37-.77-.74-.4.25-.54-.01-.96-.05.02.64-.87.09-1.16.42-.02-.14-.16-.15-.15-.33-.35.18-.81.07-1.2-.03-.05.14-.11.27-.21.36-1.43-.54-2.77-.16-3.75-.53,0,.08.01.15.02.23.03.09.02.22.14.22Z"/>
    <path class="cls-3" d="m409.14,59.97c.21-.08.49-.09.58-.27-.26-.26-.57-.18-.58.27Z"/>
    <path class="cls-3" d="m410.94,84.59c.04.29.21.43.51.42-.02-.21.07-.25.23-.13,0-.11-.02-.23-.03-.34-.34.13-.36.13-.71.05Z"/>
    <path class="cls-3" d="m409.06,85.07c.1-.49-.98-.39-.96-.05.44-.12.58.1.96.05Z"/>
    <path class="cls-3" d="m403.84,85.67c-.46.01-.72-.19-.88-.51-.39.42.84.93.88.51Z"/>
    <path class="cls-3" d="m402.91,89.16c.44-.12.89.4,1.2.03-.37.04-.93-.36-1.2-.03Z"/>
    <path class="cls-3" d="m401.24,61.56c-.05.35-.26-.09-.48.03-.12.6.91.17.48-.03Z"/>
    <path class="cls-3" d="m404.81,115.14c.25.05.36.26.73.17,0-.11-.02-.22-.03-.34-.27-.03-.67-.22-.7.16Z"/>
    <path class="cls-3" d="m401.65,86.74c.34,0,.6-.07.7-.28-.24.09-.84-.12-.7.28Z"/>
    <path class="cls-3" d="m397.71,85.42c.23.64.81.13,1.35.36,0-.82-.81-.06-1.35-.36Z"/>
    <path class="cls-3" d="m398.41,82.06c-.11-.1-.78-.19-.83.06.11.1.78.19.83-.06Z"/>
    <path class="cls-3" d="m396.43,84.26c.02-.09-.01-.22.1-.24.03.09.11.13.25.1.01-.3-.27-.28-.5-.31,0,.28-.2.37.15.45Z"/>
    <path class="cls-3" d="m395.24,85.94c.68-.22.88-.34,1.67-.12.02-.51-.57-.36-.88-.51-.27.54-1-.43-1.8-.1.13.51,1.39.04,1.01.73Z"/>
    <path class="cls-3" d="m394.67,87.92c.37-.05.71-.13.68-.5-.36.29-.63,0-.68.5Z"/>
    <path class="cls-3" d="m395.1,85.72c-.34-.08-.74-.36-.95.07.31-.09.77.28.95-.07Z"/>
    <path class="cls-3" d="m393.49,81.96c-.19-.17-.65-.35-.59.15.17-.07.63.09.59-.15Z"/>
    <path class="cls-3" d="m391.94,65.07c-.42.11-.95-.3-1.06.19.32-.09.96.08,1.06-.19Z"/>
    <path class="cls-3" d="m392.4,84.89c.2-.12.59-.08.7-.28-.19-.16-.83-.14-.7.28Z"/>
    <path class="cls-3" d="m390.74,65.04c-.44.2-.25-.3-.61-.18-.5.37.66.73.61.18Z"/>
    <path class="cls-3" d="m385.83,65.05c.48.02,1.46.25,2.3.29.42.02,1.23.14,1.29-.32-.15,0-.28-.01-.26-.21-.37-.06-.11.4-.58.27,0-.13.19-.27-.03-.34-.64.46-1.88.06-2.73.31Z"/>
    <path class="cls-3" d="m390.65,82.39c-.25-.05-.36-.26-.73-.17-.03.29.66.41.73.17Z"/>
    <path class="cls-3" d="m391.36,96.14c-.48.13-.63-.13-1.08-.04.1.27.05.72.39.43-.31-.16.68-.14.69-.39Z"/>
    <path class="cls-3" d="m389.34,82.48c.22-.03.39-.1.46-.26-.2-.02-.55-.11-.71.05.13.02.19.11.25.21Z"/>
    <path class="cls-3" d="m387.42,59.23c-.68-.1-2.15-.38-2.87.09,1.06-.26,2.4.32,2.87-.09Z"/>
    <path class="cls-3" d="m388.4,87.23c-.22.28.33.46.42.77-.06-.26-.01-.44.08-.58-.36.16-.3-.16-.5-.19Z"/>
    <path class="cls-3" d="m387.93,82.81c-.42-.13-.7-.05-.45.38.39.07.36-.2.45-.38Z"/>
    <path class="cls-3" d="m387.69,87.39c.35.04-.17.19-.09.35.24.02.33.2.5.31-.04-.28-.06-.54.07-.69-.21.12-.42-.31-.48.03Z"/>
    <path class="cls-3" d="m387.5,89.57c.02.2,0,.35-.08.46.3-.03.56-.1.7-.28-.37.12-.38-.15-.61-.18Z"/>
    <path class="cls-3" d="m385.5,90.05c-.36-.19.06-.49-.3-.78.06.24-.81.24-.45.37.56-.28.34.93.75.4Z"/>
    <path class="cls-3" d="m385.31,89.04c0-.37-.18-.54-.52-.53.15.2.21.51.52.53Z"/>
    <path class="cls-3" d="m383.57,71.37c0-.32-.32-.31-.62-.3-.03.36.28.34.62.3Z"/>
    <path class="cls-3" d="m383.63,89.05c.05.22-.14.24-.21.36.47-.11,1.33.1,1.41-.33-.6-.04-.67.09-1.2-.03Z"/>
    <path class="cls-3" d="m384.09,85.71c-.4.19-.79-.26-.95.07.39.03.87.56.95-.07Z"/>
    <path class="cls-3" d="m381.46,59.66c1.01-.09-.41-.32-.48.03.28.22.21,0,.48-.03Z"/>
    <path class="cls-3" d="m379.62,85.23c0-.11-.02-.23-.03-.34-.37.08-.51-.23-.59.16.36-.11.25.29.61.18Z"/>
    <path class="cls-3" d="m377.43,86.3c0,.22.15.24.15.45.43-.42,1.68.13,1.77-.35-1.17-.01-1.27-.12-2.54-.28.06.57.21.61.61.19Z"/>
    <path class="cls-3" d="m376.72,86.46c-.09-.52-.76-.4-1.24-.48.18.42.8.34,1.24.48Z"/>
    <path class="cls-3" d="m376.46,107.7c-.09.45,1.53.11,1.2.03-.66,0-.69.04-1.2-.03Z"/>
    <path class="cls-3" d="m373.15,83.63c.14,0,.14.17.15.33.35-.42.96-.15,1.15-.54-.4.1-1.12-.07-1.3.21Z"/>
    <path class="cls-3" d="m373.91,90.31c.58.04.5-.8.06-.8-.07.33.19.28.16.56-.14.02-.28.05-.22.24Z"/>
    <path class="cls-3" d="m371.89,76.65c.21,0,1,.3.94-.18-.28.09-.87-.08-.94.18Z"/>
    <path class="cls-3" d="m373.35,84.65c-.4.11-.76-.47-1.08-.04.49-.21.07.59.4.54.02-.34.54-.26.68-.5Z"/>
    <path class="cls-3" d="m374.75,105.77c-.48,0-.84-.14-1.33-.13.11.3,1.39.45,1.33.13Z"/>
    <path class="cls-3" d="m371.12,77.51c-.23.41-.65.19-.8.51.62-.02.95-.28,1.4-.44-.33.12-.32-.14-.6-.07Z"/>
    <path class="cls-3" d="m371.03,84.13c.29.04.81.18,1.19-.09-.17-.02-.85-.21-1.19.09Z"/>
    <path class="cls-3" d="m371.6,85.23c.01.07.03.13.13.11-.13-.36.38-.18.32-.48-.5-.28-.63-.03-1.19.08-.03-.08-.02-.22-.14-.22.02.2,0,.36-.08.46.51.06.55-.26.94-.3-.02.16-.18.2-.21.36.08,0,.16-.01.24-.02Z"/>
    <path class="cls-3" d="m370.58,85.98c.61.01,1.11.3,1.55-.11-.41-.01-1.22-.2-1.55.11Z"/>
    <path class="cls-3" d="m372.66,103.52c0-.11-.02-.23-.03-.34-.34-.06-.68.42-.31.59-.03-.2.1-.27.34-.25Z"/>
    <path class="cls-3" d="m371.81,104.83c-.01-.07-.03-.13-.13-.1-.17.42-.22-.31-.6-.07.18.27-.31.5.04.57.15-.17.51-.34.7-.16,0-.08-.01-.15-.02-.23Z"/>
    <path class="cls-3" d="m368.33,72.45c-.02.27.05.44.16.56.14-.03.34,0,.35-.14-.37.08-.09-.56-.51-.42Z"/>
    <path class="cls-3" d="m369.77,89.46c-.3.28.21.56-.06.8.55.04.2-.58.06-.8Z"/>
    <path class="cls-3" d="m368.84,83.6c-.53-.01-.88.13-.79.63.18-.03.44,0,.47-.15-.63-.35.32-.17.32-.48Z"/>
    <path class="cls-3" d="m369.72,121.07c.85.07,1.61.11,2.05.2-.28-.43-1.63-.32-2.05-.2Z"/>
    <path class="cls-3" d="m365.75,56.21c.2,0,.3-.11.34-.25-.4.12-.19-.45-.62-.3-.06.36.34.2.28.55Z"/>
    <path class="cls-3" d="m366.79,89.56c-.35.39.36.23.51.42-.12,0-.14.1-.23.13-.31-.11-.43-.43-.87-.4.31.62,1.19.63,1.71.45-.23-.36-.81-.34-1.12-.6Z"/>
    <path class="cls-3" d="m366.38,76.59c-.21.02-.37,0-.48-.08.21.3.46.56.78.74.03-.36-.39-.23-.29-.66Z"/>
    <path class="cls-3" d="m366.42,89.47c.24-.08.79.08.82-.17-.12,0-.24.02-.36.03.12-.24-.23-.53-.26-.21.07,0,.14,0,.13.11-.21,0-.3.11-.34.25Z"/>
    <path class="cls-3" d="m367.86,104.89c-.33.06-.86-.27-1.07.08.36-.02,1.03.34,1.07-.08Z"/>
    <path class="cls-3" d="m365.74,89.87c-.13-.07-.85,0-1.06.19.14.01.14.17.15.33.63.09.63-.34.92-.52Z"/>
    <path class="cls-3" d="m362.39,63.75c0-.15.14-.17.09-.35-.23.05-.25-.14-.37-.2-.18.18.04.48.28.55Z"/>
    <path class="cls-3" d="m364.62,101.7c.02-.38-.69-.59-.73-.18.16.15.57.03.73.18Z"/>
    <path class="cls-3" d="m362.05,81c.23.11.78.49.84.05-.1-.02-.15-.09-.14-.22-.35.42-.35-.15-.71.16Z"/>
    <path class="cls-3" d="m363.35,90.04c-.31.09-.43-.02-.38-.31-.46.43-.73-.53-1.09-.15.1.46,1.29.91,1.47.47Z"/>
    <path class="cls-3" d="m360.16,68.93c.3-.13.76.12.94-.18-.24-.29-.9-.25-.94.18Z"/>
    <path class="cls-3" d="m360.54,72.33c0,.08.01.15.02.23.01.07.03.13.13.1,0-.38.59.3.46-.26-.33.12-.32-.14-.6-.07Z"/>
    <path class="cls-3" d="m361.82,88.78c-.21-.11-1.36-.12-1.05.3.01-.27.52-.11.49.08-.15.12-.35.21-.45.37.22-.03.84.2.94-.18-.72-.11.36-.16.07-.57Z"/>
    <path class="cls-3" d="m360.39,87.28c.48-.13.94.03.94-.29-.45.11-.86-.14-.63-.41-.71.13.2.41-.3.71Z"/>
    <path class="cls-3" d="m359.89,73.17c-.44.19-.48-.69-.85-.17.26-.04.39.06.38.31.16,0,.86-.04.47-.15Z"/>
    <path class="cls-3" d="m360.13,74.75c-.26-.05-.77-.37-.83.06.37-.12.46.07.61.18-.01-.15.2-.12.22-.24Z"/>
    <path class="cls-3" d="m358.72,85.92c.57-.14.85.04,1.21.14-.03-.13,0-.32-.15-.33-.13.3-.41-.27-.73-.18.22.39-.4.1-.33.37Z"/>
    <path class="cls-3" d="m358.83,76.56c-.2.01-.4.03-.6.04.13.36-.29.26-.32.48.23.03.24.31.61.18.12-.18.12-.3-.04-.45.19-.02.41-.01.34-.25Z"/>
    <path class="cls-3" d="m360.3,103.14c-.58,0-1.28-.12-1.91.14-.3-.11.25-.49-.27-.44.01.26-.59.6-.35.14-.44-.15-.04.39-.33.37-.28-.5-.5.28-.73-.18.04.21-.11.26-.08.46.92-.05,1.58-.31,2.16.07.3-.36,1.27-.16,1.51-.56Z"/>
    <path class="cls-3" d="m358.65,89.57c.3,0,.39.19.47-.15-.31.01-.21-.43-.51-.42.01.19.03.38.04.57Z"/>
    <path class="cls-3" d="m357.4,93.54c.43-.15.4.21.62.3-.05-.22.14-.24.21-.36-.11-.1-.78-.19-.83.06Z"/>
    <path class="cls-3" d="m357.48,100.72c.41-.1.99-.01,1.15-.54-.2.33-1.08.11-1.15.54Z"/>
    <path class="cls-3" d="m357.93,95.67c-.37.08-.34-.28-.62-.3.02.16-.04.25-.09.35.3-.15.59.3.71-.05Z"/>
    <path class="cls-3" d="m356.7,87.66c.23.03.13.43.5.31.13-.36-.39-.62-.5-.31Z"/>
    <path class="cls-3" d="m358.56,105.32c-.3.15-.59-.3-.71.05.1.02.15.09.14.22.3,0,.49-.09.58-.27Z"/>
    <path class="cls-3" d="m358.33,103.97c-.36.02-.6.15-.69.39.23,0,.11.37.38.32.02-.3.33-.37.3-.71Z"/>
    <path class="cls-3" d="m355.75,72.33c-.16.01-.32.02-.48.03.07.21.08.49.39.43.03-.2-.2-.28-.03-.34.07-.01.14-.03.11-.12Z"/>
    <path class="cls-3" d="m356.26,89.63c.16.35-.17.29-.2.47.3.06.5.08.71-.16-.37.13-.27-.28-.5-.31Z"/>
    <path class="cls-3" d="m356.53,94.63c.32-.1-.04.54.27.44-.01-.19.32-.09.34-.25-.38.2-.39-.61-.61-.18Z"/>
    <path class="cls-3" d="m354.85,100.79c.37.33.72-.25,1.18-.2.03.13,0,.32.14.33-.05-.47.93-.09,1.05-.42-.69-.14-1.91-.28-2.37.28Z"/>
    <path class="cls-3" d="m356.01,89.53c-.34,0-.51-.17-.85-.17-.01.31.73.41.85.17Z"/>
    <path class="cls-3" d="m355.67,86.7c-.45-.02-.55-.1-.7.28.24-.09.84.12.7-.28Z"/>
    <path class="cls-3" d="m356.48,97.14c-.25-.05-.36-.26-.73-.17.1.25.71.57.73.17Z"/>
    <path class="cls-3" d="m355.62,102.91c.37-.01.66-.1.82-.29-.37-.13-.74-.08-.82.29Z"/>
    <path class="cls-3" d="m352.63,61.37c-.39,0-.56.17-.56.5.29-.09.6-.14.56-.5Z"/>
    <path class="cls-3" d="m352.59,87.04c-.09.4.91.21.96.05-.4-.19-.5.06-.96-.05Z"/>
    <path class="cls-3" d="m354.48,103.67c-.12-.31.14-.31.07-.58-.45-.08-.43.59-.07.58Z"/>
    <path class="cls-3" d="m355,119.61c-.44.15-.36-.26-.73-.18-.05.51.64.47.73.18Z"/>
    <path class="cls-3" d="m352.72,101.06c.02-.16.18-.21.21-.36-.6.2-.82.17-1.29.32.39-.02.61.15,1.08.04Z"/>
    <path class="cls-3" d="m352.26,104.4c.29-.08.47-.25.69-.39-.36.02-.79-.01-.69.39Z"/>
    <path class="cls-3" d="m351.12,83.61c-.43.03-.56-.28-.87-.39-.11.5.6.72.87.39Z"/>
    <path class="cls-3" d="m351.59,97.38c-.07-.34-.93-.44-1.21-.14.46-.1.92.46,1.21.14Z"/>
    <path class="cls-3" d="m350.65,100.64c.32-.02.64-.05.95-.07-.06-.41-1.01-.42-.95.07Z"/>
    <path class="cls-3" d="m350.83,102.91c-.02.27-.35.28-.44.49.58-.12,1.29-.14,1.38-.67-.53-.05-.64.66-.94.18Z"/>
    <path class="cls-3" d="m351.74,119.27c-.16.43.95.47.84.05-.38.09-.56-.04-.84-.05Z"/>
    <path class="cls-3" d="m349.88,104.57c.11.3-.22.25-.2.47.57-.23.92,0,1.28-.43-.31-.29-.75.28-1.08-.04Z"/>
    <path class="cls-3" d="m349.56,103.57c.02-.27.51-.15.57-.38-.1-.02-.15-.09-.14-.22-.59.25-.03-.08-.49-.19-.29.33.06.56-.57.38,0,.36.5.19.63.41Z"/>
    <path class="cls-3" d="m348.1,80.17c-.36-.07-.75.36-.44.49.05-.24.56-.07.21-.36.09-.03.24-.02.23-.13Z"/>
    <path class="cls-3" d="m348.02,82.23c-.38-.03-.53-.32-.98-.27.06.31.86.44.98.27Z"/>
    <path class="cls-3" d="m347.76,89.66c-.13.37,1.01.29.83-.06-.44-.06-.56.3-.83.06Z"/>
    <path class="cls-3" d="m345.9,67.32c.09.46-.33-.09-.33.37.39-.04.73-.11.94-.29-.28.07-.28-.19-.61-.07Z"/>
    <path class="cls-3" d="m348.61,95.99c-.37-.14-.63.1-.93.3.19.04.13.35.49.19,0-.13-.05-.32.09-.35.14-.03.34,0,.35-.14Z"/>
    <path class="cls-3" d="m348.02,103.79c.38.03.45-.28.71-.05-.04-.21.12-.26.08-.46-.39.21-.54-.44-.72-.06.13.1.26.21.38.31-.27-.01-.45.06-.46.26Z"/>
    <path class="cls-3" d="m345.78,81.13c.02.35.29.42.41.66.21-.08.49-.09.58-.27-.43-.02-.46-.48-.99-.39Z"/>
    <path class="cls-3" d="m346.97,84.02c-.35.17-.85.22-1.16.42.32.06,1.17.08,1.16-.42Z"/>
    <path class="cls-3" d="m347.04,85.04c-.31,0-.79-.43-.97-.16.45.12-.35.04-.22.24.41.06.86.01,1.23.37-.01-.31-.22-.21-.04-.45Z"/>
    <path class="cls-3" d="m345.54,79.56c.31-.1.59-.22.81-.4-.26-.18-.98-.1-.81.4Z"/>
    <path class="cls-3" d="m345.26,72.85c.18.13.3.41.16.56.72.05.01-.92-.16-.56Z"/>
    <path class="cls-3" d="m347.7,102.79c-.12.02-.28-.47-.37-.09.22.09.19.45.62.3-.03-.17.01-.42-.15-.44-.02.09.01.22-.1.24Z"/>
    <path class="cls-3" d="m345.66,85.71c.2-.08.71.09.71-.16-.27.08-.67-.44-.71.16Z"/>
    <path class="cls-3" d="m347.38,104.75c.14-.03.34,0,.35-.14-.28-.02-.29-.33-.51-.42-.02.27.05.43.16.56Z"/>
    <path class="cls-3" d="m345.15,82.21c-.06.29.55.44.61.18-.26-.2-.22-.4-.61-.18Z"/>
    <path class="cls-3" d="m347.19,102.37c-.2.08-.71-.09-.71.17.25.01.15.41.39.43-.16-.41.43-.21.31-.59Z"/>
    <path class="cls-3" d="m346.28,99.81c-.12.6.97.21.48-.03,0,.28-.4.06-.48.03Z"/>
    <path class="cls-3" d="m344.17,78.86c.37-.08.71-.19.8-.51-.35.1-.72.19-.8.51Z"/>
    <path class="cls-3" d="m346.28,102.89c.07,0,.14,0,.13.1-.14.03-.34,0-.35.14.2-.01.09.31.26.32.23-.05.3-.98-.04-.57Z"/>
    <path class="cls-3" d="m345.6,100.31c-.02-.14-.06-.27-.26-.21.21.52.3.41-.18.7.33.02.45.02.74.29.13-.35-.08-.47.18-.81-.19-.12-.31-.11-.48.03Z"/>
    <path class="cls-3" d="m345.82,103.15c-.02-.2,0-.35.08-.46-.22.04-.27-.11-.48-.08-.03.36.18.45.4.54Z"/>
    <path class="cls-3" d="m344.46,91.84c-.1.24-.21.47-.3.71.38.05.51-.63.3-.71Z"/>
    <path class="cls-3" d="m343.7,82.08c-.3-.06-.72-.13-.83.17.42-.13.74.28.83-.17Z"/>
    <path class="cls-3" d="m341.12,55c-.24.09-.79-.08-.83.17.26.04.79.22.83-.17Z"/>
    <path class="cls-3" d="m344.64,111.1c.31.02.39.31.74.29-.03-.26-.57-.58-.74-.29Z"/>
    <path class="cls-3" d="m344.1,104.18c.01.33-.49.23-.43.6.3-.07.53-.2.69-.39-.16,0-.12-.19-.26-.21Z"/>
    <path class="cls-3" d="m340.82,61.98c-.31.1-.74.1-.93.29.25.17.95.08.93-.29Z"/>
    <path class="cls-3" d="m343.34,111.31c.48,0,.51-.25.72.06,0-.07,0-.13.11-.12,0-.08-.01-.15-.02-.23-.46.08-.77-.23-.82.29Z"/>
    <path class="cls-3" d="m336.6,61.6c-.56.39-1.84.06-1.89.36,1.56.16,3.92.97,5.3.42-.87-.49-2.12-.98-3.38-.33-.4-.2.4-.29-.03-.45Z"/>
    <path class="cls-3" d="m342,87.91c-.49.18-.35-.35-.63-.41-.41.31.64.95.63.41Z"/>
    <path class="cls-3" d="m341.58,93.3c-.07.44-.94-.18-1.18.2.65.12,1.24.17,1.69.22-.04-.29-.21-.43-.51-.42Z"/>
    <path class="cls-3" d="m342.75,111.35c.63-.07.42-.63.06-.81-.06.35-.44.42-.93.41-.03.4.59.09.63.41.13-.18.06-.51.44-.49.11.3-.22.25-.2.47Z"/>
    <path class="cls-3" d="m340.58,81.96c-.08-.06-.59-.23-.6.04.15.01.08.12.02.23.3,0,.49-.09.58-.27Z"/>
    <path class="cls-3" d="m341.22,94.81c-.28-.02-.11-.53-.51-.42.17.5-.46.33-.68.51.11.34.1.21.04.57.28-.64.87-.43,1.15-.65Z"/>
    <path class="cls-3" d="m340.69,94.16c-.51.19-.7.05-1.2-.03.12.36.47.46.99.39.02-.16.18-.2.21-.36Z"/>
    <path class="cls-3" d="m338.38,81.43c.05.15.62-.19.73.18-.09.21-.26.35-.31.59,1.27.01.02-1.7-.42-.77Z"/>
    <path class="cls-3" d="m337.74,63.91c-.2.01-.4.03-.6.04-.06.49.67.34.6-.04Z"/>
    <path class="cls-3" d="m339.64,89.9c-.47-.06-.5.23-.69.39.33.26.56-.16.69-.39Z"/>
    <path class="cls-3" d="m339.65,97.77c-.16-.04.03.52.16.56-.01-.19.33-.09.34-.25-.14,0-.34.05-.37-.09.02-.14.17-.25-.14-.22Z"/>
    <path class="cls-3" d="m339.19,87.19c-.28-.24-.4.12-.83.06-.3.05,1.06.35.83-.06Z"/>
    <path class="cls-3" d="m338.94,94.74c.13-.36.69.24.7-.28-.26-.18-1.07.01-.7.28Z"/>
    <path class="cls-3" d="m338.47,85.65c.21.32-.07,1.06.33,1.12-.13-.13.33-1.2-.33-1.12Z"/>
    <path class="cls-3" d="m340.32,106.39c-.4.18-.6-.47-.84-.05.22-.02.26.07.14.22.2-.08.71.09.71-.16Z"/>
    <path class="cls-3" d="m338.78,88.02c.11-.35-.54-.45-.61-.18.23.03.32.22.61.18Z"/>
    <path class="cls-3" d="m340.43,109.35c-.46.01-.87.07-1.05.3.55-.16.75.06,1.05-.3Z"/>
    <path class="cls-3" d="m339.92,110.41c0-.35.4-.38.55-.61-.51-.12-.83.44-.55.61Z"/>
    <path class="cls-3" d="m336.4,66.75c0-.11-.02-.23-.03-.34-.16.01-.32.02-.48.03-.01.3.27.28.5.31Z"/>
    <path class="cls-3" d="m338.45,109.95c-.52-.08.27-.49.47-.15-.02-.16.04-.25.09-.35-.22-.19-.39.13-.83.06.05.54-.79.34-1.03.64.03.17,0,.42.15.45,0-.53.91-.32,1.15-.65Z"/>
    <path class="cls-3" d="m339.03,111.28c-.5.48-1.08-.08-1.39.55.48-.17,1.33-.04,1.39-.55Z"/>
    <path class="cls-3" d="m336.91,93.29c-.3.12-.68-.3-.83.06.37-.18.77.56.83-.06Z"/>
    <path class="cls-3" d="m335.78,88.01c-.29-.13-.22.03-.6-.07.02.16-.04.25-.09.35.3-.03.56-.11.7-.28Z"/>
    <path class="cls-3" d="m334.84,94.35c.25.05.4.21.62.3-.02-.16.04-.25.09-.35-.15,0-.28-.01-.26-.21-.22.03-.39.1-.46.26Z"/>
    <path class="cls-3" d="m335.91,106.59c.03.33.31.4.52.53,0-.37-.18-.54-.52-.53Z"/>
    <path class="cls-3" d="m334.92,112.25c.49-.28,1.08.05,1.29-.32-.57.16-1.22-.32-1.29.32Z"/>
    <path class="cls-3" d="m332.98,87.41c-.22-.14-.73-.66-.85-.17.3-.09.43.01.38.31.18-.03.44,0,.47-.15Z"/>
    <path class="cls-3" d="m332.78,107.84c.48-.18,1.48.16,1.42-.22-.62.17-1.17-.26-1.42.22Z"/>
    <path class="cls-3" d="m332.12,99.45c.32-.09.54-.27.68-.51-.38.05-.7.13-.68.51Z"/>
    <path class="cls-3" d="m328.66,54.98c-.32.02-.68.09-.84-.05.05.47.67.29.84.05Z"/>
    <path class="cls-3" d="m332.49,107.29c-.31.07-.65.1-.82.29.15.11.76,0,.82-.29Z"/>
    <path class="cls-3" d="m327.99,67.91c.17-.07.62.09.59-.16-.37.08-.59-.1-.38-.31-.17.07-.62-.09-.59.16.26-.04.39.07.38.31Z"/>
    <path class="cls-3" d="m329.99,87.4c-.16.01-.32.02-.48.03.04.28.06.55-.07.69.29-.15.33-.5.54-.72Z"/>
    <path class="cls-3" d="m329.93,98.92c.17.14.85.16.82-.17-.3.28-.62-.13-.82.17Z"/>
    <path class="cls-3" d="m329.15,90.42c.37-.01.66-.1.82-.29-.34.04-.82-.04-.82.29Z"/>
    <path class="cls-3" d="m329.14,91.9c-.33-.34-.25-1.13-.7-1.32.02.2,0,.36-.08.46.5-.08.11.36.16.56.25.05.4.21.62.3Z"/>
    <path class="cls-3" d="m325.25,66.51c.09-.33.55-.05.6.07-.03-.31.18-.24-.04-.45-.34.13-.36.13-.71.05,0,.08.01.15.02.23.01.07.03.13.13.11Z"/>
    <path class="cls-3" d="m328.37,106.56c.3,0,.58-.02.58-.27-.37.08-.48-.13-.73-.18,0,.2.05.35.15.45Z"/>
    <path class="cls-3" d="m326.65,90.71c.15.44.61-.12.69-.39-.6.12-.93.6-1.19.09-.15.33,0,.92-.27,1.16.08,0,.16-.01.24-.02.11-.33.25-.65.53-.84Z"/>
    <path class="cls-3" d="m327.49,93.73c.11-.35-.54-.45-.61-.18.23.03.24.31.61.18Z"/>
    <path class="cls-3" d="m328.94,112.45c-.28-.06-.59-.41-.59.16.17-.07.63.09.59-.16Z"/>
    <path class="cls-3" d="m326.92,87.96c-.52.02-.75-.06-.94.29.2.23.99.04.94-.29Z"/>
    <path class="cls-3" d="m329.03,118.15c-.02-.16.04-.25.09-.35-.39.17-1.21-.03-.93.41.12-.32.62-.04.83-.06Z"/>
    <path class="cls-3" d="m326.03,87.33c-.03.16-.15.23-.08.46.2-.01.4-.03.6-.04-.04-.29-.21-.43-.51-.42Z"/>
    <path class="cls-3" d="m323.64,54.99c-.46.01-.87.07-1.05.3.6-.11.92.03,1.05-.3Z"/>
    <path class="cls-3" d="m325.61,88.05c.05-.17.15-.3.2-.47-.33.12-.32-.14-.6-.07-.12.38.39.06.27.44-.17.03-.44,0-.47.15.2-.01.4-.03.59-.04Z"/>
    <path class="cls-3" d="m325.95,92.47c-.19.17-.76.01-.69.39.35-.03.73-.04.69-.39Z"/>
    <path class="cls-3" d="m325.79,93.51c0,.17-.28.12-.47.15.02.2,0,.35-.08.46.18-.15.92-.37.55-.61Z"/>
    <path class="cls-3" d="m323.57,86.48c-.03.16-.15.23-.08.46.3,0,.49-.09.58-.27-.24.02-.18-.3-.49-.19Z"/>
    <path class="cls-3" d="m324.19,92.94c-.02-.16.04-.25.09-.35-.33.12-.32-.14-.6-.07.07.25.24.39.51.42Z"/>
    <path class="cls-3" d="m322.7,90.65c.08.28.26.45.41.65,0-.17.28-.12.47-.15.11-.16.08-.43.19-.58-.16.01-.32.02-.48.03-.03.2.2.28.03.34-.08,0-.16.01-.24.02.2-.21-.02-.39-.38-.31Z"/>
    <path class="cls-3" d="m321.11,67.15c.23.03.32.22.61.18-.06-.28-.58-.59-.61-.18Z"/>
    <path class="cls-3" d="m323.16,87.31c-.04-.21.11-.26.08-.46-.44.09-.55.2-.84-.05.07.38.43.42.76.51Z"/>
    <path class="cls-3" d="m325.22,115.34c-.49-.03-.34.49-.07.58-.07-.27.2-.26.07-.58Z"/>
    <path class="cls-3" d="m320.85,66.83c-.33.43-.49-.17-.7.28.23.11.57.1.85.17.01-.22-.15-.24-.15-.45Z"/>
    <path class="cls-3" d="m318.74,55.11c.41.17.52-.1,1.07-.08-.11-.18-1-.12-1.07.08Z"/>
    <path class="cls-3" d="m322.43,91.81c.13.36-.38.18-.32.48.44.06.82-.38.32-.48Z"/>
    <path class="cls-3" d="m321.31,86.64c.34-.02.39-.74.07-.69.11.34-.18.35-.07.69Z"/>
    <path class="cls-3" d="m319.32,67.16c.2-.08.71.09.7-.16-.16-.15-.73-.15-.7.16Z"/>
    <path class="cls-3" d="m319.34,87.47c.5-.3,1.55.37,2.03-.03-.39-.27-1.32.06-1.58-.34-.3,0-.36.2-.45.37Z"/>
    <path class="cls-3" d="m321.03,86.09c.07-.01.14-.03.11-.12-.33.12-.32-.14-.6-.07.21.32.35.73.49.19Z"/>
    <path class="cls-3" d="m318.9,86.47c.28-.02.37.17.72.06,0-.28-.02-.55-.28-.55,0,.13.04.32-.09.35-.14.03-.34,0-.35.14Z"/>
    <path class="cls-3" d="m318.39,87.65c.22-.06.51-.08.45-.37-.22-.19-.46.07-.45.37Z"/>
    <path class="cls-3" d="m316.26,57.12c-.02-.16.04-.25.09-.35-.29.03-.35.24-.59.04-.01.3.19.36.5.31Z"/>
    <path class="cls-3" d="m318.59,87.06c-.01-.15-.02-.3-.04-.45-.2.01-.4.03-.59.04-.05.43.23.49.63.41Z"/>
    <path class="cls-3" d="m319.69,111.97c0,.36.6.57.61.18-.36.11-.25-.3-.61-.18Z"/>
    <path class="cls-3" d="m318.45,91.41c.04-.5-.58-.26-.98-.27.11.59.51.08.98.27Z"/>
    <path class="cls-3" d="m317.72,86.67c-.27-.11-.43-.35-.75-.4.03.31.52.73.75.4Z"/>
    <path class="cls-3" d="m314.85,55.96c-.02-.16.04-.25.09-.35-.34,0-.6.07-.7.28.27-.06.46-.01.61.07Z"/>
    <path class="cls-3" d="m317.01,93c-.05.35-.26-.09-.48.03.08.35.52.67.07.91.31-.06.13.43.5.31-.23-.46.19-.91-.1-1.25Z"/>
    <path class="cls-3" d="m316.08,85.53c.09-.14.13-.32.07-.58-.45-.09-.15.44-.57.38,0-.28-.21-.34-.39-.43.06.3-.68-.06-.45.37.34-.15.44-.1.61.18-.17.08-.28.2-.33.36.51-.19.53-.53,1.05-.3Z"/>
    <path class="cls-3" d="m315.67,91.04c.09.09.85.25.71-.17-.28.24-.5-.14-.71.17Z"/>
    <path class="cls-3" d="m315.56,92.76c-.19-.51.39-.39.42-.71-.74.08-1.2-.38-1.55.11.38-.05.52.16.96.05.08.16-.09.6.16.56Z"/>
    <path class="cls-3" d="m314.59,88.03c.13.09,1.06.24.94-.18-.3.29-.7-.15-.94.18Z"/>
    <path class="cls-3" d="m316.15,95.79c.03-.49-.36-.5-.65-.64-.03.49.36.5.65.64Z"/>
    <path class="cls-3" d="m312.61,88.63c-.33.12-.32-.14-.6-.07-.08.3.72.51.6.07Z"/>
    <path class="cls-3" d="m311.97,89.7c-.08-.53-.27-.93-.46-1.34.01.36-.41.37-.42.71.61-.43.49.47.89.62Z"/>
    <path class="cls-3" d="m308.05,45.49c.02-.26-.05-.43-.16-.56-.39,0-.56.18-.56.5.36-.11.37.17.72.06Z"/>
    <path class="cls-3" d="m311.58,92.36c-.17-.14-.46-.12-.47.15.2-.01.09.31.26.32-.11-.3.22-.24.2-.47Z"/>
    <path class="cls-3" d="m310.85,90.7c.3-.04.45-.2.44-.49-.38-.03-.52.14-.44.49Z"/>
    <path class="cls-3" d="m310.18,91.31c.2-.12.64-.04.57-.38-.17-.15-.52-.08-.84-.05-.12.38.39.06.27.44Z"/>
    <path class="cls-3" d="m309.69,91.12c0,.13-.18.14-.35.14-.05.65.85.11.35-.14Z"/>
    <path class="cls-3" d="m308.96,87.98c-.3.03-.56.1-.7.28.1.09.74.07.7-.28Z"/>
    <path class="cls-3" d="m308.35,86.2c-.1.41-.62-.36-.71.05.14,0,.14.17.15.33.39-.31.76.09.51.42.41.11.23-.79.06-.8Z"/>
    <path class="cls-3" d="m308.53,90.18c-.21-.13-.71-.57-.84-.05.68-.1.19.34.16.56.4-.03.47-.32.68-.51Z"/>
    <path class="cls-3" d="m307.01,87.55c.34,0,.27-.34.44-.49-.16.02-.27-.04-.36-.09.12.31-.15.31-.08.58Z"/>
    <path class="cls-3" d="m304.84,87.25c.2-.12.64-.04.57-.38-.34,0-.65.03-.57.38Z"/>
    <path class="cls-3" d="m304.72,91.93c.06-.29.57.37.59-.15-.4-.02-.89-.3-.59.15Z"/>
    <path class="cls-3" d="m302.4,65.18c-.15-.12-.24-.31-.61-.18-.05.28.6.39.61.18Z"/>
    <path class="cls-3" d="m303.63,91.78c-.3.41.66.38.31.89.71-.09-.08-.72-.31-.89Z"/>
    <path class="cls-3" d="m302.33,87.31c-.02.35.41.21.62.3.03-.36-.28-.34-.62-.3Z"/>
    <path class="cls-3" d="m299.72,63.09c-.39.2-.75,0-.94.18.24.29.8.17.94-.18Z"/>
    <path class="cls-3" d="m295,63.88c.07,0,.14,0,.13.1-.09.03-.23.02-.23.13.2-.01.4-.03.59-.04.1-.3-.44-.47-.49-.19Z"/>
    <path class="cls-3" d="m288.81,55.08c-.42-.19-1.22.03-1.46-.35.04.21-.12.26-.08.46.61-.42,1.29.43,1.55-.11Z"/>
    <path class="cls-3" d="m282.52,60.43c.47-.1,1.04-.03.81-.4-.09.44-.44-.47-.59.04.09.02.15.08.14.22-.14.03-.34,0-.35.14Z"/>
    <path class="cls-3" d="m276.56,59.26c.02-.27.22-.51-.16-.56,0,.08.01.15.02.23-.18.03-.44,0-.47.15.23.03.32.22.61.18Z"/>
    <path class="cls-3" d="m267.59,56.25c.28-.09.87.08.94-.18-.26-.17-.84-.26-.94.18Z"/>
    <path class="cls-3" d="m458.71,104.69c.14,0,.14.17.15.33-.56-.15-.61-.1-.22.24-.35.06-1.42.84-1.6,1.03,1.56-.35,1.88-1.72,3.24-1.48-.63-.12-1.09-.37-1.57-.12Z"/>
    <path class="cls-3" d="m435.36,87.64c-.31.06-.13-.43-.5-.31-.02.09.01.22-.1.24-.18-.11-.3-.1-.35.14.51-.19.74.05.95-.07Z"/>
    <path class="cls-3" d="m431.93,102.03c.14-.21,1.16-.25.8-.51-.25.11-.61.12-.8.51Z"/>
    <path class="cls-3" d="m425.82,86.61c.02-.19-.19-.29-.25-.1.13.07.58.4.72.06-.16,0-.12-.19-.26-.21-.02.13-.12.19-.22.24Z"/>
    <path class="cls-3" d="m417.02,85.87c-.41.19-.64.22-.94.29-.02.35.41.21.62.3-.16-.41.22-.38.31-.59Z"/>
    <path class="cls-3" d="m400.86,85.88c.34,0,.81-.16.85.17-.22.03-.39.1-.46.26.4.02.68-.29.44-.49.23-.05.25.14.38.2-.08-.16.09-.6-.16-.56-.22.47-.91-.09-1.05.42Z"/>
    <path class="cls-3" d="m398.28,105c-.02.09.01.22-.1.24-.12,0-.15-.08-.25-.1.06.4.62.11.72.06-.19,0-.12-.28-.38-.2Z"/>
    <path class="cls-3" d="m391.04,88.86c.58.04-.13.75.42.77.08-.42-.23-1.05-.42-.77Z"/>
    <path class="cls-3" d="m389.96,96.58c-.02-.23.31-.17.2-.47-.32.31-1.59-.33-1.53.34.68.06.92-.15,1.33.13Z"/>
    <path class="cls-3" d="m387.49,87.86c-.12-.39-.36-.35-.05-.68-.23-.11-.56-.12-.63-.41.07,0,.13-.1,0-.11-.2.12-.21.39-.44.49-.6-.24-1.47-.19-1.96-.55-.08.37.33.21.39.43-.07.01-.14.03-.11.12-.32-.06-.29-.5-.64-.53,0,.48-.45-.1-.58.27.3.17.87.02.99.39-.26-.01-.72-.17-.94.18.29-.04.5.02.61.18-.36.18-.74-.23-.83.06.9.26,2.89,1.19,3.57,1.23-.19-.16-.68.01-.63-.41.49.12.32.01.21-.36.28.02.25.38.62.3-.14-.44.06-.89.43-.6Z"/>
    <path class="cls-3" d="m385.46,83.33c.27-.63,1.32-.61,1.45-1.36-.28.17-.52-.3-.6.04.68.34-1.27.85-.86,1.32Z"/>
    <path class="cls-3" d="m386.37,85.77c-.04-.23.5-.5.07-.69-.23.7-1.75.42-2.14.15.02.4-.41-.21-.35.14.81.78,2.1.14,2.43.4Z"/>
    <path class="cls-3" d="m382.97,71.3c-.17-.1-.45-.08-.5-.31.3,0,.39.19.47-.15-.32-.23-.65.18-.81.4.39-.17.66.4.84.05Z"/>
    <path class="cls-3" d="m383.18,84.86c0,.73.98.02.59-.15.04.24-.42.08-.59.15Z"/>
    <path class="cls-3" d="m380.11,86.9c.99-.26,1.55-.2,2.19.42,0-.29.14-.45.44-.49,0,.2.05.35.15.45.3-.04.45-.2.44-.49-1.15-.25-2.1-.04-3.26-.34.3.34-.19.34.04.45Z"/>
    <path class="cls-3" d="m374.36,72.94c.02-.26-.35-.1-.38-.32.11-.23.54-.2.69-.39-.19-.02-.1-.24-.03-.34-1.33.46-2.06-.03-2.94.67.14,0,.34-.04.37.09-.31.01-.57-.02-.73-.18-.04-.36.33-.92.16-1.04-.11.47-.77,1.03-1.27.55-.12.38.39.06.27.44-.16-.02-.24-.14-.49-.08.03-.16.13-.2-.03-.34-.37.16-.3-.16-.5-.19-.05.67.83.31.68,1.09,1.19.61,2.94-.26,4.33.26.28-.17.06-.23.21-.36.24.36.45,0,.85.17-.04-.28.16-.37.32-.48.02.23.34.12.27.44-.06.2-.56.03-.58.27.26-.07.67.3.72.06-.19-.25-.15-.65.06-.8-.74-.31-1.43.02-2.01.37.07,0,.14.08,0,.11Z"/>
    <path class="cls-3" d="m308.23,93.96c.03-.55.15-.17.47-.15-.04-.25.07-.37.33-.37.3.21.21.15.62.3-.13-.39-.55-.46-.78-.74.11.38-.22.39-.31.59-.28-.02-.29-.33-.51-.42.06.3,0,.49-.32.48.11.16.21.35.5.3Z"/>
    <path class="cls-3" d="m345.01,85.07c.27-.06.46-.01.6.07.11-.16.08-.42.19-.58-.45.13-.48-.21-.63-.41-.33-.05-.35.15-.61.16.55.09.91.34.45.76Z"/>
    <path class="cls-3" d="m344.56,84.3s-.06-.01-.09-.02c0,0,0,.01,0,.02.04,0,.06,0,.09,0Z"/>
    <path class="cls-3" d="m331.03,85.38c-.3.08-.41.18-.61-.07-.17.11-.14.38-.19.59.57.08.55-.33.8-.51Z"/>
    <path class="cls-3" d="m341.17,100.29s0,0-.01,0c0,0,.02,0,.03,0,0,0,0-.01-.01-.02Z"/>
    <path class="cls-3" d="m341.34,100.96c.23-.38,1.31-.04,1.5-.68.24.19-.12.34.16.56.4-.7,1.25-.21,1.98-.71-.98.29-2.37-.41-3.2.34-.2-.08-.4-.12-.6-.17.24.12-.21.53.16.66Z"/>
    <path class="cls-3" d="m343.61,82.43c-.08.36-.17.71-.41.94.38-.47.85-.54,1.26-.77-.43.1-.64-.03-.85-.17Z"/>
    <path class="cls-3" d="m375.37,85.99c-.22-.09-.33-.29-.73-.18-.08.35.81.24.73.18Z"/>
    <path class="cls-3" d="m374.96,89.89c-.03.28.24.23.16.56-.21.04-.61-.07-.46.26.3-.07.53-.2.69-.39-.37-.08.11-.31.08-.46-.16.01-.32.02-.48.03Z"/>
    <path class="cls-3" d="m373.28,74.5c-.7-.3-.92-.11-1.46-.35.15.37,1.27.47,1.48.6,0-.08-.01-.17-.02-.25Z"/>
    <path class="cls-3" d="m366.94,56.13c.37.06.2-.33.58-.27.12.55.67.2.88.51-.29-.5.35.07.71-.05-.66-.71-1.94-.34-2.8-.6,0,.62.5-.07.63.41Z"/>
    <path class="cls-3" d="m369.81,73.03c-.5.1-.28-.6-.87-.39.17.18.63.69.87.39Z"/>
    <path class="cls-3" d="m370.21,85.9c.12-.51-.48-.21-.41-.66.29-.25.56.08.71-.16-.41.12-.5-.75-.64-.52.09.4-.06.59-.3.71-.24-.2-.57-.17-.72-.06.2.19,1,.09.64.52.37-.08.3.33.73.18Z"/>
    <path class="cls-3" d="m369.91,105.08c.29-.36.99.38.84.05-.17-.06-.24-.23-.27-.44-.18.07-.79.33-.57.38Z"/>
    <path class="cls-3" d="m368.1,84.91c-.6-.04-.77,0-1.2-.03-.03-.17.01-.42-.15-.45-.25.34-1.27.45-1.34-.25.59-.14.89-.03,1.67-.12.1-.24.38-.6-.16-.56-.05.13-.12.42-.56.5-.47-.28-1.41-.23-2.04-.08.25.17.15-.02.48-.03,0,.15.08.24.15.33-.42.24-1.05.33-1.62.69-.68.01-.34-.59-1.12-.61-.07.7-.7.57-1.39.56,0-.11-.02-.23-.03-.34-.45.32-.73-.13-1.28.43,0-.16-.08-.25-.15-.33.25-.32,2.16-.57,1.91-.02.83-.41,1.37-.74,2.36-.4-.13-.2.33-.4-.04-.45-.5.2-1.14.26-1.56,0-.19.62-1.28.41-1.56,0,.3,0,.58-.02.58-.27-.69-.33-.93-.46-1.55.11.41.08.79-.41,1.07-.08-.05.17-.16.29-.33.36-.3-.25-.4-.14-.84-.05.08-.5-.49-.28-.64-.52-.27.25.24.47-.19.58-.53-.1-.85.31-1.33-.13.17-.18.49-.24.56-.5-.43-.03-.26.42-.69.39.01-.3-.27-.28-.5-.31-.57.42-1.64.15-2.1.72-.14-.21-.56-.12-.74-.29.27.01.45-.06.46-.26-.65.45-1.76-.08-1.62.68-.49.08-.83-.63-1.22-.26.09.02.24-.01.25.1-.23-.01-.25.14-.47.15-.17-.49-1.2.19-1.58-.34.18.47-.49.24-.56.5.75.22,1.65.35,2.43.51-.77.26-1.28.23-2.13.27-.04-.19.64-.49.08-.46-.35.73-1.25,0-1.76.47.54.1,1.32-.07,1.36.59,0-.57.41.07.6.07.07-.68,1.01-.15,1.64-.46.08.48.34.22.84.05-.1.56.51.34.65.64.63-1.25,2.22-.14,2.64.04-.22.01.18-.33.2-.47.29.02.46.79.75.4-.12-.11-.44,0-.38-.31.41-.04.85-.12.97.16.09-.17.15-.37.45-.37.4.06.62.23.63.41-.16-.19.87.12.47-.15-1.36-.72,2.57-.69,2.29.18.33-.09.27-.49.68-.51.24.27.75.24.89.62.67-.04,1.04-.41,1.44.01.21-.22-.08-.33-.16-.56.3-.14.63-.38.83-.06-.27.16-.66.35-.19.59.2-.3,1.25-.06,1.32.02.34-.12-.1-.36-.04-.57.35-.07.46-.33.68-.5.17.1.37.16.5.31-.19.2-.52.29-.68.5.41-.25.66.17,1.07-.08.14-.27-.34-.4-.04-.45.58.04.68.31,1.09.15-.01-.15-.02-.3-.04-.45Zm-16.66-.3c-.15-.65.62-.23.94-.29-.2.39-.54.03-.94.29Zm1.09.15c.25-.27.6-.03.84.05.02.34-.94.42-.84-.05Zm1.66-.23c.27-.22.99-.08,1.56,0-.4.37-1.17.28-1.56,0Zm3.88.64c-.36.11-.18-.38-.61-.18.09-.61.78-.5,1.15-.65.13.53-.78.21-.53.84Zm4.46.37c0-.4.84-.6.94-.3.11.53-.65.36-.94.3Z"/>
    <path class="cls-3" d="m365.78,75.03c-.03.26-.65.03-.57.38.2-.01.4-.03.59-.04-.06-.19.15-.3-.03-.34Z"/>
    <path class="cls-3" d="m366.39,98.26c-.09-.47.67-.23.67-.62-.57.45-1.53.02-1.84.93-.43.14-.7-.53-.97-.16.14,0,.14.17.15.33.54-.14.14.17.37.2.05-.14.11-.27.21-.36-.06.29.62.25.84.05-.3.09-.43-.02-.38-.31.54-.06.46-.13.95-.07Z"/>
    <path class="cls-3" d="m362.31,71.97c-.31-.42-.22-.6-.66-.75-.04.37.25.33.04.57.48-.16.33.37.63.41-.12,0-.24.02-.36.03.01.15.02.3.04.45.59-.19,1.11.33,1.33.13-.17-.34-.84-.14-1.11-.38.35-.65,1.52-.82,1.9-.14-.33.12-.32-.14-.6-.07.12.39,1.44.45,1.43-.1-.84.07-1.11-.49-1.62-.8,0,.13.05.32-.09.35.04-.57-.42-.03-.63-.41.31.16.32-.41.09-.35-.02.27-.35.28-.44.49.31-.1.25.22.38.32-.24-.02-.22.17-.34.25Z"/>
    <path class="cls-3" d="m364.69,71.8c-.2-.23-.47-.38-.76-.52-.1.48.67.64.76.52Z"/>
    <path class="cls-3" d="m362.26,56.01c.03-.28-.24-.23-.16-.56-1.03.06-.36.14.16.56Z"/>
    <path class="cls-3" d="m363.46,83.64c.2-.08.71.09.7-.17-.48-.81-1.5.04-2.04-.08.42.56,1.11-.41,1.68,0-.02.39-.49-.27-.34.25Z"/>
    <path class="cls-3" d="m364.52,88.13c-1.18-.09-.29.04.04.45-.01-.15-.02-.3-.04-.45Z"/>
    <path class="cls-3" d="m363.71,82.25c-.22.23-.77-.21-1.21-.14,0,.14,1.41.58,1.21.14Z"/>
    <path class="cls-3" d="m362.99,79.22c-.74-.13-1.13-.23-1.9.14.5-.04,2.53.7,1.9-.14Z"/>
    <path class="cls-3" d="m362.64,97.84c.52.05.48-.05.96.05-.05-.22.14-.24.21-.36-.23,0-.11-.37-.38-.32.02.67-1.09-.07-1.64.46.02.59-1.76.68-2.25.27.52-.1.83-.06,1.06-.19-.2.01-.09-.31-.26-.32-.17.04-.81.11-.69.39-.26-.32-.61-.05-.85-.17.17.33-.35.62-.45.37.09-.03.24-.02.23-.13-1.3-.66-2.73.46-3.86-.41-.29.17.15.55-.08.58-.59-.6-1.69.28-2.54-.39,0,.14.05.32-.09.35-.17-.3-1.23-.15-1.19.08,1.19.29,2.55-.1,3.6.09.04.28.25.33.04.57.43-.32,1.08-.5,1.54-.22-.04-.32.27-.35.57-.38,0,.15-.14.17-.09.35.16,0,.26-.07.35-.14,0,.11-.09.14-.1.24.33-.18.63.27.71-.05-.15-.05-.28-.1-.37-.2.23,0,.25-.15.47-.15-.14.44.34.19.28.55.4-.34.59-.38,1.18-.2-.05-.26,0-.43.2-.47-.29.54.87.41,1.09.15.02.16-.04.25-.09.35.77-.14,1.54-.13,2.17.19-.12-.5.73-.38,1.05-.3-.05.14-.11.27-.21.36.17-.33-.54-.28-.49-.08.66-.11.46.35.64.53.31-.64.42-.39.15-1.15-.35.05-1.38.31-1.21-.14.09.32.17-.19.35-.14Z"/>
    <path class="cls-3" d="m350.81,98.12s0,0,0,0c-.02,0-.05,0-.07-.02.02,0,.04.02.07.02Z"/>
    <path class="cls-3" d="m348.89,98.02c.63.04.85.12,1.18-.2.13.08.27.13.4.18-.3-.14-.5-.39-.33-.76-.44.49-.6-.18-.95.07.57.16-.35.34-.3.71Z"/>
    <path class="cls-3" d="m360.44,80.32c-.44.33.78-.22.67-.62-.44.03-.43.43-.67.62Z"/>
    <path class="cls-3" d="m359.42,90.2c.85-.08,1.39-.23,2.15-.04-.03-.15.37-.45.08-.46-.41.4-1.02.05-1.57-.23-.03.28.24.23.16.56-.22-.26-.68-.17-.82.17Z"/>
    <path class="cls-3" d="m358.82,73.25c-.09-.64-1.2-.02-1.42.22.22.04.98.53.74.29-.13-.19-.45-.16-.51-.42.58.17.63-.29,1.19-.09Z"/>
    <path class="cls-3" d="m358.23,101.12c.23-.05.25.14.37.2.17-.63,1.21.1,1.53-.34-.57.05-1.07.04-1.34-.25-.05.67-.4-.18-.57.38Z"/>
    <path class="cls-3" d="m359.17,100.83c.1-.11.35-.05.7-.16-.01-.15-.02-.3-.03-.45-.33.04-.82-.04-.82.29.42-.02-.22.39.15.33Z"/>
    <path class="cls-3" d="m358.46,88.67c-.45-.09-.2.4-.44.49-.28.05-.5-.58-.73-.18.27-.05.16.32.38.32.11-.25.6.14.7-.28-.35-.04.17-.19.09-.35Z"/>
    <path class="cls-3" d="m356.38,75.82c-.12,0-.24.02-.36.03.1.3.46.31.64.52.06-.35-.34-.19-.28-.55Z"/>
    <path class="cls-3" d="m353.99,88.19c-.23,0-.25.15-.47.15.21.63.47.61.45,1.11.56,0,.66-.25.96.05.06-.81,1.31-.07,1.53-.34-.23-.28-.99.02-1-.5.14-.29.37.18.47-.15-.62.03-1.39-.13-1.78.24.07-.33-.19-.28-.16-.56Zm1.25.71c-.2.3-.62-.11-.82.29-.39-.3.54-.47.82-.29Z"/>
    <path class="cls-3" d="m350.28,63.47c.03.13,0,.32.15.33-.07-.49.46-.08.48.08.62-.22,1.55.03,2.28.07-.18-.27.22-.57-.04-.57-.02.16-.25.15-.34.25-.01-.71-.41-.52-.44-1-.08.52-1.34-.12-1.16.43-.22,0-.1-.38-.27-.44-.99.11-2.15.52-2.98.1.21.41.27.18-.08.46.71-.2,1.71.91,2.42.28Z"/>
    <path class="cls-3" d="m353.62,100.31c.19.49-.72-.15-.82.29.51.28,1.31.05,1.78-.24-.44.12-.58-.1-.96-.05Z"/>
    <path class="cls-3" d="m348.77,88.79c-.29.74,1.34.37,1.82.33,0,.08.01.15.02.23-.39-.07-.35.2-.58.27-.23-.03-.32-.22-.61-.18-.01.38.53.15.74.29.24-.12.33-.37.69-.39.3.47.74.06,1.23.37-.04-.25.07-.37.33-.37,0,.11.11.13.14.22-.2,0-.3.11-.34.25.51-.12.82,0,.98.27-.22-.39.4-.1.33-.37-.16-.24-.9.18-.75-.4.16.02.24.15.48.08.07-.49-.12-.57.17-.92-.53-.08-.36.41-.81.4.03-.4.37-.6-.17-.67.03.45-.19.69-.66.73.26-.55-.84-.15-1.1-.26,0-.29.2-.37-.15-.45.06.3-.67-.06-.45.37.23.09.37-.37.48-.03-.48.43-1.48.32-1.78.24Z"/>
    <path class="cls-3" d="m351.81,104.78c-.21-.42.31-.24.2-.58-.18-.15-.85.1-.34.25-.24.04-.81-.52-.83.06.55-.17.97.17.51.42.17.31,1.11-.25,1.1.26.3-.35.56-.26.93-.41-.41-.35-1.13.37-1.56,0Z"/>
    <path class="cls-3" d="m349.71,93.18c-.01-.6.99-.26.79-.63-.21.09-.62.13-1.07.08.3.16.14.74.28.55Z"/>
    <path class="cls-3" d="m351.34,121.81c-1.09.34-1.69-.51-2.41-.17.63.44,1.81.57,2.41.17Z"/>
    <path class="cls-3" d="m349.82,105.37c-.6.29-.78-.06-1.11-.38.19.44,0,1.18.23,1.47.03-.58.7-.63.87-1.09Z"/>
    <path class="cls-3" d="m337.49,88.46c-.18-.05-.6.18-.6-.07,0-.12-.08-.28-.13-.11.01.15.02.3.04.45.19-.19.55.1.7-.28Z"/>
    <path class="cls-3" d="m347.53,89.79c-.08-.76.45-.39.91-.63.01-.22-.15-.24-.15-.44-.24.02-.48.03-.71.05-.04.45-.85.2-.94.18.03-.16.15-.23.08-.46-.29-.02-.24.23-.59.16-.12.38.39.06.27.44-.35-.07-.3.18-.59.16-.49-.63-1.44-.53-1.94-.32.35.73,2.87.19,2.09.76.58.21,1.28-.2,1.57.12Z"/>
    <path class="cls-3" d="m343.33,88.15c.05.74-.38-.08-.7.28.12-.17.11-.29-.15-.33.06.26-.33.15-.33.37.23.03.52,0,.5.31.1-.1.26-.14.47-.15.05.18-.1.2-.09.35.01.11.15.08.25.1-.14.3-.77.13-.62-.3-1.17.26-1.96-.19-3.4-.56.19-.44.97.14.95-.07-.19-.02-.1-.24-.03-.34-.64.1-.93-.14-1.3.21.15,0,.28.01.26.21-.39.16-.52-.04-.71.16.49.92-1.27.51-1.65.35-.45-.09-.32.31-.7.28-.1-.43-.51-.58-.87-.39-.09.55.72.11.76.52-.47.1-.73-.39-1.08-.04.24-.25-.04-.37-.16-.56-.94.34-1.48.06-2.24.39-.02-.23.31-.17.2-.47-1.63.26-3.33.05-4.99.47.06-.45-1,.01-.52-.53-.42.69-1.22-.11-1.88.48.12,0,.1.14-.11.12-.11-.3.22-.24.2-.47-.2.08-.71-.09-.7.16.15,0,.28.01.26.21-.85.03-1.46-.19-2.07-.42.35-.17.46-.12.72.06.01-.22-.15-.24-.15-.44-1.07.35-1.39,1.01-2.68.99-.12.46.37.25.4.54.35-.03.38-.32.69-.39.83.48,2.32-.06,3.1-.11-.04.18-.37.12-.2.47.35,0,.39-.24.57-.38.18.58,1.44-.03,1.71.45-.41-.01-.45.69.05.57-.37-.85,1.82-.84,2.45-.86-.05-.29,1,.04,1.17-.31.14.1.07.42.38.31-.16-.38.79-.39,1.15-.65.02.14.16.15.15.33-.34,0-.65.03-.57.38.41-.3,1.21-.13,1.92-.03-.38.05-.69.35-.45.49.1-.33.51,0,.71-.05-.01-.14-.02-.28-.03-.42.39.04.74.04.95-.1-.06.35-.07.22.04.57.28-.02.34-.22.71-.16-.05.42.23.49.63.41-.26-.27-.29-.21-.53-.65.2-.05.52-.19.71-.05-.5.53.29.05.04.57.61.1,1.14.29,1.71.45.06-.43-.64-.03-.52-.53.24-.02.48-.03.71-.05-.01.26.06.42.27.44-.18-1.08,2.08-.25,2.67-1.1-.05.17-.15.3-.2.47.23-.05.25.14.37.2.28-.17-.24-.33.08-.46.5-.05.29.04.14.22.5.05.18-.56.68-.5-.04.72.63-.1.75.4.26-.48.58-.01,1.07-.08.15-.49-.62.03-.62-.3.16-.01.09-.21.22-.24-.16-.28-.25-.63-.54-.76Zm-6.02,1.11c.12-.4.68-.47.72.06-.38-.14-.46.07-.72-.06Zm1.68,0c0-.72.62-.28,1.28-.43-.15.38-.96.21-1.28.43Z"/>
    <path class="cls-3" d="m345.29,88.59c-.25-.34-1.23-.53-1.47-.46.4.08-.11.23-.09.35.09.02.15.09.14.22.5,0,.12-.45.32-.48.18.33.69.3,1.11.38Z"/>
    <path class="cls-3" d="m348.86,106.81c.33.31,1.01-.4.82-.29-.43.2-.69-.07-.82.29Z"/>
    <path class="cls-3" d="m348.36,94.3c.22.46-.66.02-.44.49.36.08.93-.54.44-.49Z"/>
    <path class="cls-3" d="m348.42,94.98c-.17.07-.63-.09-.59.16.58-.19.48.38.87.39.06-.36-.34-.19-.28-.55Z"/>
    <path class="cls-3" d="m348.86,102.25c.6,0-.01.36.04.57.72.2.19-1.11-.04-.57Z"/>
    <path class="cls-3" d="m348.93,104.64c-.42,0,.27-.44-.15-.45,0,.08.01.15.02.23-.18.03-.44-.01-.47.15.13.07.93.28.6.07Z"/>
    <path class="cls-3" d="m350.07,119.27c-.15-.04-.28-.1-.37-.2-.28.02-.56.04-.83.06-.19.09,1.53.29,1.21.14Z"/>
    <path class="cls-3" d="m344.09,102.47s-.04,0-.06,0c.02,0,.03.01.05.01,0,0,0-.01,0-.02Z"/>
    <path class="cls-3" d="m343.56,87.91c.27-.33.53-.06.82-.29-.28-.22-.79-.02-.82.29Z"/>
    <path class="cls-3" d="m343.11,74.48c-.61-.66-1.42.32,0,0h0Z"/>
    <path class="cls-3" d="m345.01,105.03c-.45.47-1.42.36-1.49.9.5-.3,1.23-.4,1.49-.9Z"/>
    <path class="cls-3" d="m342.15,76.03c-.33.33-1.28.16-1.51.56.68.07,1.49-.23,1.51-.56Z"/>
    <path class="cls-3" d="m341.72,82.79c-.13-.32-.13-.34-.05-.68-.59-.13-.06.66-.55.61,0-.06-.11-.12-.12,0,.35.39.39-.13.72.06Z"/>
    <path class="cls-3" d="m342.06,94.86c.02-.27.51-.15.57-.38-.52-.07-.81.27-1.33-.13.1.34.57.27.76.52Z"/>
    <path class="cls-3" d="m343.04,105.97c-.02-.16.04-.25.09-.35-.46-.02-.74.1-.81.4.34-.18.38-.34.71-.05Z"/>
    <path class="cls-3" d="m342.97,106.55c-.16-.1-.45-.08-.61-.18.05.22-.14.24-.21.36.23.2.34-.07.59-.16.12.08.35.66.5.31-.15-.04-.25-.13-.27-.32Z"/>
    <path class="cls-3" d="m341.18,82.03c-.44.2-.06-.5-.5-.3-.06.35.15.41.17.67-.27-.03-.67-.22-.71.16.16.15.57.03.73.17-.2-.48.44-.27.3-.71Z"/>
    <path class="cls-3" d="m340.73,79.33c-.23-.28-.89-.17-.96-.05.15.01.08.12.02.23.31-.3.74.11.94-.18Z"/>
    <path class="cls-3" d="m341.12,91.96c-.68-.05-1.1.21-1.44-.01.3.21.64,1.01,1.12.6-.46-.25.26-.41.31-.59Z"/>
    <path class="cls-3" d="m340.76,98.15c-.03-.09-.02-.23-.14-.22,0,.11.02.23.03.34.2-.12.59-.08.7-.28-.22.04-.27-.11-.49-.08-.02.09.01.22-.1.24Z"/>
    <path class="cls-3" d="m341.81,105.49c-.01.2-.18.27-.46.26-.02-.16.04-.25.09-.35-.5.04-.26.28-.08.46.28.04.81-.24.45-.37Z"/>
    <path class="cls-3" d="m337.95,65.15c-.38.04-.51.29-.81.4.41.08-.63.38-.08.58,0-.32.73-.93.46-.26.4-.02.2-.54.42-.71Z"/>
    <path class="cls-3" d="m341.27,110.89c-.52.15-1.39-.03-1.77.35.57-.12.92-.16,1.44.01-.22-.39.4-.1.33-.37Z"/>
    <path class="cls-3" d="m337.41,85.84c0,.19-.21.54.06.8-.06-.29,0-.49.32-.48-.03.07-.26.46.04.46-.05-.22.14-.24.21-.36-.34,0-.19-.53-.63-.41Z"/>
    <path class="cls-3" d="m337.45,87.89c.03.13,0,.32.15.33.02-.09-.01-.22.1-.24.06.14.17.22.37.2-.05-.3-.35-.96-.51-.42.46.01.2.29-.11.12Z"/>
    <path class="cls-3" d="m338.57,94.65c-.7.2-.64-.45-1.12-.49-.25.18.17.27-.09.35-.55.13-.79-.35-1.21-.14.15.01.08.12.02.23.84-.11,1.87.23,2.4.06Z"/>
    <path class="cls-3" d="m339.65,110.09c-.57.16-.81-.05-1.18.2.56-.08.94.41,1.18-.2Z"/>
    <path class="cls-3" d="m338.37,110.52c.14.04.28.1.38.2,0,.13-.19.27.03.34.02-.27.35-.28.44-.49-.46.25-.59-.48-.84-.05Z"/>
    <path class="cls-3" d="m336.86,88.04c.02-.27.35-.28.44-.49-.27.06-.48.17-.7.28-.04-.2.08-.58-.27-.44.07.33.25.54.53.65Z"/>
    <path class="cls-3" d="m335.81,85.27c0,.15-.2.12-.22.24.27-.05.45,0,.5.19-.24-.04-.59.35-.33.37.03-.26.65-.03.57-.38-.31.01-.2-.43-.51-.42Z"/>
    <path class="cls-3" d="m336.02,86.39c.07,0,.13-.1,0-.11-.03.2-.16-.01-.36.02.32.46.2.41-.06.8.49.07.55.01.82-.29-.18-.09-.39-.14-.39-.43Z"/>
    <path class="cls-3" d="m337.93,107.93c-.51,0-.58.37-.79.63.48-.03.41-.51.79-.63Z"/>
    <path class="cls-3" d="m337.24,109.81c.25-.15.77-.08.81-.4-1.37-.04-1.95-.26-3.12-.12,0,.14-.01.27-.22.24.21.09,1.15.16,1.56.12-.13-.02-.3-.17-.14-.22.42.06.7.29,1.11.38Z"/>
    <path class="cls-3" d="m337.28,114.94c1.32.2.97-.36,0,0h0Z"/>
    <path class="cls-3" d="m336.65,106.88c.26.2.79.02.94-.18-.5.34-.77-.27-.94.18Z"/>
    <path class="cls-3" d="m335.36,87.24c.18.27-.53.32-.08.46,0-.48.45.1.58-.27-.24.02-.17-.3-.49-.19Z"/>
    <path class="cls-3" d="m334.25,88.34c-.06-.3.45-.12.32-.48-.25-.17-.15.02-.48.03,0,.16.08.25.15.33-.07,0-.13.1,0,.11Z"/>
    <path class="cls-3" d="m333.3,91.49c.31.27.65.51.9.85.11-.16.08-.43.19-.58-.24-.02-.23.17-.34.25.01-.36-.42-.72-.76-.52Z"/>
    <path class="cls-3" d="m327.68,66.91c.3-.11.83-.58.79-.63-.25.15-.77.08-.81.4.14.01.08.12.02.23Z"/>
    <path class="cls-3" d="m331.1,107.85c-.09-.08-.68-.2-.71.05.08.28.45.78.53.65-.54-.51.35-.69.18-.7Z"/>
    <path class="cls-3" d="m327.55,66.81c-.24.12.13-.59-.14-.22,0,.07,0,.14-.11.12-.16,0-.12-.19-.26-.21-.38.27.37.63.5.31Z"/>
    <path class="cls-3" d="m328.36,88.08c.44-.28.38.08.62.3-.13-.35.16-.36.19-.58-.38,0-.72.05-.82.29Z"/>
    <path class="cls-3" d="m330.43,106.87c-.05-.73-.74-.51-1.12-.6-.05.28-.44.27-.3.71.24-.59.96.06.44-.49.55-.11.75.15.99.39Z"/>
    <path class="cls-3" d="m330.02,112.37c-.39.07-.79-.12-.51-.42-.29.25-.56-.08-.7.16.42-.01.78.69,1.22.25Z"/>
    <path class="cls-3" d="m329.83,114.67c-.15.48-.12,1.11-.49,1.4.7.09.54-1.57.49-1.4Z"/>
    <path class="cls-3" d="m323.73,66.96c-.23.68-1.04-.34-1.29.32.84.16,1.93.33,3.14.35-.53-.59-1.39-.08-1.85-.67Z"/>
    <path class="cls-3" d="m327.49,115.29c0-.46.71-.34.78-.74-.35.11-1.11.43-.78.74Z"/>
    <path class="cls-3" d="m325.43,90.34c.03-.76.74.11.81-.4-.9-.06-1.06.02-1.65.35.46-.1.48-.13.84.05Z"/>
    <path class="cls-3" d="m323.64,93.55c.54-.43,1.43.08,2.12-.38-.57.15-1.8-.31-2.12.38Z"/>
    <path class="cls-3" d="m322.13,86.36c.02-.09.09-.14.23-.13-.01.2.28.66.38.32-.03-.26-.95-.65-.61-.19Z"/>
    <path class="cls-3" d="m321.75,87.75c.16-.32.69.28.83-.06-.25-.09-.49-.2-.74-.29.24.29-.51.26-.09.35Z"/>
    <path class="cls-3" d="m319.77,54.58c-.79-.15-1.63-.25-2.54-.28.02.37-.7.13-.55.61.57-.77,2.2.08,3.09-.33Z"/>
    <path class="cls-3" d="m322.53,91.57c-.07,0-.14,0-.13-.1-.01-.07-.03-.13-.13-.11,0,.13-.18.14-.35.14.17-.39-.01-.42-.27-.44.09-.25-.05-.68.43-.6-.26-.45-.84-.55-1.26-.82.08.53.71.44.79.97-.48-.08,0,.64-.43.6-.56.04-.09-.48-.51-.42-.42.04.28.36-.09.35-.21-.36-.27.26-.59.16-.04-.07-.33-.42-.04-.45.23-.05.25.14.38.2-.03-.2,0-.36.08-.46-.45.05-1.27-.04-1.63.57.3.26.21-.19.59-.16.37.44.21.63-.33.36.05.47.64.35.84.06,0,.2.11.28.26.32,0-.13-.04-.32.09-.35.2-.02.31.07.37.2-.21.19-.39.39-.55.61.19.18.76-.35.56-.5.3,0,.35-.2.58-.27.09.42.52-.12.27.32.33-.32.8.14,1.06-.19Z"/>
    <path class="cls-3" d="m321.26,92.12c.11.38.25.71.66.75-.2-.27-.32-.63-.66-.75Z"/>
    <path class="cls-3" d="m321.04,87.8c-.31-.1-.5.42-.2.47-.02-.55.38,0,.48.08.06-.35-.34-.19-.28-.55Z"/>
    <path class="cls-3" d="m311.81,92.23c.57.1,1.69-.3,1.96.54.33-.42.56-.41.84.05-.08-.57-.38-.89-.8-1.08.22-.03.05-.38.33-.37.22.09.37.25.62.3-.02-.2,0-.35.08-.46-.34-.07-.3.18-.59.16.02-.16.18-.21.21-.36-.44-.04-.44.28-.82.29,0-.11.02-.21.05-.29.36.01.71.03,1.06-.03.44-.07.55-.35.34-.64.16-.07.33-.09.51.02-.15-.29-.42-.25-.68-.23-.32-.31-.66-.61-1.01-.89.02,0,.03-.02.05-.02.44-.04.7.13.98.27,0-.13-.04-.32.09-.35,1.28.53,3.17.12,4.49.71,0,.13-.18.14-.35.14.03.21.11.37.27.44.27-.31.34-.79.51-1.18.6-.06.06.38.51.42.26-.29-.06-.56-.07-.91-.4.37-.93-.01-1.16.43.12.11.44,0,.38.31-.35-.11-.61-.32-.77-.63-.45.15-1.01.18-1.19.08-.26-.21.04-.22.08-.46-.5-.05-.18.56-.68.51-.03-.21-.11-.37-.27-.44.14.77-.9-.49-1.06.19.16.15.59,0,.62.3-.68.09-.94-.27-1.35-.47,0,.13.05.32-.09.35-.46-.46-1.12.11-2.17-.19.04.53-.32.24-.7.28-.06.35.23.32.17.67.5-.22.21.05.51.42-.76.19-1.08.74-1.59,1.14.55,0,1.16-.4,1.56,0,0,0,0,0,0,0-.44.09-.8.47-1.2-.03.13.64-.72.47-1.02.76.4.6,1.09-.68,1.56,0-.14.02-.28.06-.22.24Zm.58-.53c.05.16.21.25.41.13.07-.04.12-.14.16-.23.04-.01.06-.02.11-.04.05.48-1.01.74-.95.07.13.03.2.05.26.06Z"/>
    <path class="cls-3" d="m320.36,88.31c-.08-.13-.46.12-.39-.43.17,0,.45-.06.23-.13-.17,0-.26.07-.35.14-.03.36.29.42.05.68.21-.04.61.07.46-.26Z"/>
    <path class="cls-3" d="m318.35,67.12c-.4-.37-.7-.19-1.12-.6.47.75-.62-.36-.56.5,1.07.11.94.22,1.68.11Z"/>
    <path class="cls-3" d="m318.73,85.8c-.17.41-.26-.27-.49-.19.1.3.28.51.53.65.03-.07.26-.46-.04-.45Z"/>
    <path class="cls-3" d="m318.46,93.12c.23,0,.25-.15.47-.15,0-.34-.41-.85-.53-.65.12.2.33.29.4.54-.19.02-.41.01-.34.25Z"/>
    <path class="cls-3" d="m314.59,66.47c.15.04.25.13.26.32.28-.02.34-.22.71-.16.09.33.23.05.39.43-.08-.31.47.25.47-.15-.23,0-.11-.37-.38-.31-.02.09.01.22-.1.24-.03-.17.01-.42-.15-.45-.18.31-.89-.3-.94.18.02-.19-.19-.3-.25-.1Z"/>
    <path class="cls-3" d="m317.54,90.45c-.53,0-1-.17-1.04.42.4-.22.89-.05.95-.07,0-.11-.11-.13-.14-.22.09-.03.24-.02.23-.13Z"/>
    <path class="cls-3" d="m316.61,92.45c-.13.33-.27-.34-.61-.19,0,.4.45.33.64.53-.06-.19.15-.3-.03-.34Z"/>
    <path class="cls-3" d="m314.77,85.74c0-.57-.36-.04-.5-.31-.06-.26.33-.15.33-.37-.71-.04-.26.64-.42.83.29.03.24-.22.59-.15Z"/>
    <path class="cls-3" d="m311.76,67.02c-.12-.72.96-.04.92-.52-.34.06-.41,0-.26-.21-.67,0-.63-.14-.7.28-.54-.05-.29-.25-.63-.41.1.18-.38.78-.19.58.31-.31.67.08.86.28Z"/>
    <path class="cls-3" d="m309.68,87.93c.04.29.25.38.4.54.12-.5.49-.03.72.06.07-.26-.57-.32-.17-.56-.24-.28-.52.06-.96-.05Z"/>
    <polygon class="cls-3" points="310.64 87.97 310.64 87.98 310.64 87.99 310.64 87.97"/>
    <path class="cls-3" d="m310.78,88.19c-.04-.11-.09-.15-.13-.21.03.09.02.21.13.21Z"/>
    <path class="cls-3" d="m310.19,93.02c.22-.4.72.07.68-.5-.27.05-.47.26-.71.05.18.25-.27.45.04.45Z"/>
    <path class="cls-3" d="m309.92,92.59c.08-.32.41-.44.42-.83-.16,0-.32.02-.48.03-.05.17.18.58-.07.57.05-.1-.85-.21-.95.07.42.24.94-.2,1.09.15Z"/>
    <path class="cls-3" d="m308.18,87.12c.38.34.17.57.77.63.02-.15.15-.23.08-.46-.36-.22-.58.16-.85-.17Z"/>
    <path class="cls-3" d="m307.98,92.27c.1-.13.5-.82.31-.71-.1.33-.55.05-.61-.07.05.22-.14.24-.21.36.23.2.36-.18.49.19.02.13-.16.19.02.23Z"/>
    <path class="cls-3" d="m305.63,88.22c.79.03.71-.02,1.05-.3,0-.09-1.25.24-1.05.3Z"/>
    <path class="cls-3" d="m306.22,86.58c-.02.14-.13.08-.24.02-.19.21-.08.71.18.79-.03-.21.11-.71.06-.8Z"/>
    <path class="cls-3" d="m297.81,64.59c-.52-.1-.61-.03-.86-.28.46.03.02-.69.42-.71-.16.02-.27-.03-.37-.09,0,.42-.28.85.11,1.36.2-.12.59-.08.7-.28Z"/>
    <path class="cls-3" d="m284.21,60.65c.22-.03.39-.1.46-.26-.45.2-.52-.65-.85-.17.17.1.45.08.5.31-.07.01-.14.03-.11.12Z"/>
    <path class="cls-3" d="m277.62,54.39c.26-.55.49-.19.95-.07.08-.31.4-.48.59-.16.33-.76-.65-.14-1.34-.25.22-.28-.04-.12-.15-.33-.97.15-2.27.37-2.84.43.84.37,2.35-.66,2.77.26-.07,0-.13.1,0,.11Z"/>
    <path class="cls-3" d="m400.5,85.91c-.05-.22.14-.24.21-.36-.46,0,.16-.84-.65-.64-.06.36.34.19.28.55-.41.12-.47-.14-.84-.05-.13.05-.42.49-.08.58.16-.38.74-.04,1.07-.08Z"/>
    <path class="cls-3" d="m358.53,57.3c.03.46.64,1.02.88.51.67.72,1.95,1.34,3.3.91.69.27,1.72.9,2.42.4.12.4.92.05,1.22.25,0-.14.01-.27.22-.24,1.68.62,3.34.15,5.08.66.02-.6.85-.14,1.04-.42-.47-.06-.7-.37-1.12-.49,0,.13.05.32-.09.35-.18-.09-.39-.14-.39-.43-.09-.36.59-.08.44-.49-2.01,1.07-3.56-1.45-5.43-.53,0-.19-.11-.28-.26-.32-.38.64-1.23-.4-1.54.22.01-.58-.92-.24-1.21-.14-.82-.73-2.03-.08-3.04-.58-.1.16-.39.18-.45.37.02-.51-.4-.35-.12,0-.21,0-.37.05-.47.15-.1-.36.2-.37-.04-.57-.32-.11-.26.57-.36.03-.33.06-.68.39-.43.6.24.02.22-.17.34-.25Z"/>
    <path class="cls-3" d="m356.65,103.86c-.13-.33-.13-.34-.05-.68-.2.01-.4.03-.59.04-.18.3.17.39-.08.58-.21-.01-.29-.18-.27-.44-.35.14-.86.15-.92.52.73-.14,1.15.31,1.91-.02Z"/>
    <path class="cls-3" d="m352.99,96.82c-.79.03-.53-.34-1.12-.49-.08.5.18.62.31.89.17-.07.62.09.59-.16-.07,0-.14-.08,0-.11.09-.03.23-.02.23-.13Z"/>
    <path class="cls-3" d="m345.92,98.35c.41.05.16-.43.44-.49.34.45.81.02,1.06-.19.14.01.19.11.26.21-.07.19-.59.01-.45.37.8-.18.98-.07,1.56,0-.58-.45.22-.65-.08-1.02-.18.39-.59-.65-.85-.17.26.18-.44.47-.82.29-.28.17.16.41-.08.46-.47.18-.62-.19-.39-.43-.33.23-.65.46-.64.96Z"/>
    <path class="cls-3" d="m348.64,101.01c-.14.05-.44-.3-.15-.33.52.35,1.35-.27,1.9-.25-.65-.09-1.6-.2-2.02.14-.18-.28-.41-.19-.72-.06-.02-.2,0-.36.08-.46-.46.26-1.09.38-1.25.89-.02-.18-.01-.39-.26-.32.26.9,1.6.3,2.42.4Z"/>
  </g>
  <g>
    <path class="cls-4" d="m121.07,97.99c2.56,1.1,4.17,2.58,4.82,4.44.65,1.86.38,4.19-.83,7.01-.77,1.79-1.67,3.37-2.71,4.75s-2.17,2.5-3.39,3.36l-6.96-2.99c2.63-1.1,4.44-2.79,5.42-5.08.44-1.03.61-1.88.51-2.58s-.46-1.17-1.07-1.43c-.15-.07-.31-.12-.46-.15.08.47.08,1.02-.01,1.66s-.27,1.28-.55,1.93c-.82,1.92-2,3.21-3.52,3.88-1.54.66-3.19.6-4.95-.15-1.09-.47-1.97-1.12-2.65-1.97-.7-.85-1.09-1.78-1.17-2.78s.05-2.01.4-3.02c.17-.52.38-1.08.62-1.7s.52-1.28.82-2.01l3.59-8.36,12.1,5.2Zm-7.99,7.19c.2-.46.24-.87.14-1.24l-3.31-1.42-.09.22c-.36.85-.49,1.56-.39,2.12s.5,1,1.19,1.3c.53.23,1.02.25,1.46.07s.77-.53.99-1.05Z"/>
    <path class="cls-4" d="m135.7,84.71l-5.54,6.52-.95-.81c-.05.76-.23,1.5-.54,2.21-.32.75-.69,1.37-1.11,1.86-.81.96-1.81,1.5-3,1.63-1.18.11-2.25-.24-3.21-1.05-1.08-.91-1.62-2.06-1.63-3.45-.02-1.39.53-2.74,1.63-4.03.32-.38.67-.74,1.03-1.07s.75-.63,1.15-.91c-.3-.26-.62-.42-.96-.5s-.69-.07-1.03.02-.7.26-1.05.51-.69.57-1.03.96c-.53.63-.96,1.3-1.3,2.02-.16.35-.31.73-.44,1.15s-.25.87-.36,1.36l-3.82-3.24c.03-.18.09-.42.16-.72s.18-.66.32-1.09.3-.87.49-1.32.42-.91.69-1.38c.52-.95,1.23-1.96,2.14-3.03,1.94-2.28,3.83-3.52,5.68-3.72,1.85-.21,3.69.46,5.53,2.02l7.14,6.06Zm-8.86,5.45c.33-.39.51-.83.51-1.31l-1.77-1.51c-.26.17-.47.31-.63.43s-.32.28-.48.47c-.33.39-.49.79-.5,1.19s.17.76.5,1.04.74.41,1.2.34.84-.29,1.17-.68Z"/>
    <path class="cls-4" d="m151.32,69.94c1.44,2.39,1.89,4.52,1.34,6.41s-2.14,3.63-4.76,5.22c-1.67,1.01-3.32,1.77-4.97,2.29s-3.22.77-4.71.76l-3.92-6.48c2.78.64,5.24.31,7.37-.98.96-.58,1.59-1.18,1.91-1.8s.31-1.21-.03-1.78c-.09-.14-.18-.27-.29-.39-.21.43-.53.87-.98,1.34s-.97.88-1.57,1.25c-1.78,1.08-3.49,1.45-5.12,1.11-1.63-.36-2.94-1.36-3.94-3.01-.61-1.01-.95-2.06-1.01-3.14-.07-1.1.15-2.08.66-2.94s1.21-1.6,2.08-2.23c.44-.32.94-.66,1.5-1.02s1.17-.74,1.83-1.16l7.78-4.71,6.82,11.27Zm-10.68,1.2c.43-.26.7-.57.83-.92l-1.86-3.08-.2.12c-.79.48-1.31.98-1.55,1.5s-.17,1.11.22,1.75c.3.5.68.8,1.15.91s.94.02,1.42-.28Z"/>
    <path class="cls-4" d="m170.87,67.94l-8.34,1.89-.28-1.22c-.49.58-1.08,1.06-1.76,1.45-.7.41-1.37.68-2,.82-1.22.28-2.35.11-3.38-.5-1.01-.62-1.66-1.55-1.93-2.77-.31-1.38-.06-2.62.77-3.74.82-1.12,2.06-1.87,3.72-2.25.49-.11.97-.19,1.47-.23s.98-.06,1.47-.03c-.09-.39-.24-.71-.47-.98s-.51-.47-.84-.6-.72-.21-1.14-.22-.89.04-1.4.15c-.8.18-1.55.46-2.25.84-.34.18-.68.4-1.04.65s-.72.54-1.1.87l-1.11-4.89c.13-.12.32-.28.56-.47s.54-.42.91-.68.76-.52,1.18-.76.88-.47,1.38-.69c.99-.45,2.16-.83,3.53-1.14,2.92-.66,5.17-.52,6.77.44,1.61.94,2.67,2.59,3.21,4.94l2.07,9.13Zm-10.35-.96c.5-.11.9-.36,1.2-.74l-.51-2.27c-.31-.02-.56-.04-.77-.03s-.43.03-.67.09c-.5.11-.87.33-1.11.66s-.32.7-.22,1.14.35.77.75.99.85.28,1.34.16Z"/>
    <path class="cls-4" d="m186.39,60.75l-2.48-.15s.37-2.07.57-4.21c.26-2.76.01-5.45.01-5.45l-9.86.83s1.58,6.05-.13,16.03l6.43.38,2.67.16,5.83.34.45-7.72-3.49-.21Z"/>
    <g>
      <path class="cls-4" d="m194.95,66.85l-.97,3.29,8.21,2.42,1.17-3.98c1.18-4,1.38-7.54.28-11.68l-8.45,1.79c.59,1.95.33,6.21-.24,8.16Z"/>
      <path class="cls-4" d="m196.31,56.1c.85.25,1.68.15,2.47-.29.81-.44,1.34-1.09,1.59-1.96s.17-1.72-.28-2.49c-.43-.79-1.07-1.31-1.92-1.56s-1.7-.16-2.51.28c-.8.43-1.33,1.07-1.58,1.92s-.16,1.7.28,2.51,1.09,1.34,1.96,1.59Z"/>
    </g>
    <path class="cls-4" d="m221.04,84.21l-6.73-4.48,5.43-8.16c.34-.51.5-.98.49-1.42s-.24-.81-.7-1.12c-.19-.13-.44-.23-.73-.3s-.58-.11-.85-.1l-6.24,9.37s-6.24-4.15-7.12-4.74c7.27-10.3,7.97-13.97,7.97-13.97l7.85,4.52-.63,2.05c1.11-.23,2.09-.26,2.96-.09s1.73.53,2.57,1.1c1.67,1.11,2.61,2.41,2.83,3.9.23,1.49-.21,3.06-1.3,4.71l-5.81,8.74Z"/>
    <path class="cls-4" d="m236.57,99.32c-2.26,1.63-4.36,2.24-6.29,1.85s-3.79-1.84-5.58-4.33c-1.14-1.58-2.03-3.17-2.67-4.77s-1.02-3.15-1.13-4.64l6.15-4.42c-.41,2.82.11,5.25,1.56,7.27.65.91,1.3,1.49,1.94,1.77s1.24.21,1.77-.18c.13-.1.26-.2.37-.32-.44-.17-.91-.46-1.42-.87s-.96-.89-1.37-1.46c-1.22-1.69-1.72-3.37-1.51-5.02.23-1.66,1.12-3.04,2.68-4.17.96-.69,1.98-1.11,3.05-1.26,1.09-.16,2.09-.02,2.99.43s1.7,1.08,2.39,1.9c.36.42.73.89,1.13,1.41s.83,1.1,1.3,1.73l5.31,7.38-10.69,7.69Zm-2.05-10.55c.29.4.62.66.99.76l2.92-2.1-.14-.19c-.54-.75-1.08-1.22-1.62-1.43s-1.12-.08-1.72.35c-.47.34-.74.75-.81,1.22s.06.94.39,1.39Z"/>
    <path class="cls-4" d="m253.03,105.53c.41,1.27.58,2.5.52,3.7s-.34,2.3-.82,3.3-1.16,1.88-2.03,2.64c-.87.76-1.9,1.33-3.1,1.71s-2.35.52-3.49.42-2.2-.42-3.17-.95-1.84-1.26-2.59-2.2-1.34-2.04-1.75-3.33c-.52-1.62-.66-3.2-.41-4.75.25-1.54.87-2.88,1.87-4.04,1.01-1.15,2.32-1.99,3.95-2.51s3.14-.61,4.64-.29c1.49.33,2.8,1.04,3.9,2.13,1.12,1.09,1.95,2.47,2.49,4.16Zm-9.88,3.19c.18.55.48.94.91,1.16s.92.24,1.47.06.94-.49,1.16-.92.25-.93.07-1.48c-.09-.26-.21-.49-.36-.68s-.34-.33-.55-.43-.44-.16-.7-.18-.51.02-.77.1c-.54.17-.92.48-1.15.91s-.26.92-.09,1.45Z"/>
  </g>
  <g>
    <g id="J61ypG">
      <g>
        <path class="cls-11" d="m206.83,120.98c-1.28.48-1.12-.45-2.39.07,0,0,0,2.62-.78,4.1-1.69,3.21-4.43,5.47-7.39,7.48-.18.12-.55.13-.73.02-3.86-2.4-8.84-.26-9.73,4.26-.07.35-.18.51-.37.6h21.11c.09-.06.2-.15.31-.23q-.73-.55-.24-1.92c-.27-.34-.52-.65-.76-.95-1.55.64-3.08,1.32-4.65,1.91-.74.28-1.53.41-2.28.6-.26-.64-.51-1.17-.69-1.73-.04-.13.09-.39.22-.48,1.18-.83,2.37-1.63,3.56-2.44,2.66-2.26,4.53-5.08,5.83-8.3.22-.55.37-1.13.48-1.71.18-1.02-.51-1.63-1.48-1.27Zm-51.86,11.53c-.39.23-.63.21-1.01-.03-2.87-1.87-5.32-4.15-7.09-7.09-.54-.9-1.11-2.24-.88-3.96,0,0-1.62-.14-2.27-.48,1.35-1.05,2.69-2.08,4.01-3.13.13-.1.23-.3.26-.47.22-1.23.42-2.47.62-3.71.01-.07-.06-.16-.1-.24-3.12,1.76-5.56,4.22-7.43,7.26-.19.3-.37.61-.55.91-.08.15-.16.3-.24.45-.14.31-.28.63-.42.94l-.02.04c-.14.37-.27.73-.42,1.1v.04c-.1.27-.19.55-.28.82-.05.21-.1.41-.15.62-.15.71-.3,1.42-.45,2.13,0,.1-.02.19-.02.28-.04.38-.09.76-.13,1.14,0,.33-.01.66-.02,1,0,.48.02.95.02,1.43.02.19.05.38.08.57l.03.29c.29,1.09.58,2.18.87,3.28.04.03.05.06.03.11.04.11.08.21.13.32l.32.66c.12.24.24.49.36.73h5.81c-1.85-.17-2.73-.99-3.5-3.03-1.2-3.14-.95-6.22.3-9.28.02-.06.07-.1.17-.23.91,2.18,2.24,3.99,3.79,5.68,1.55,1.69,3.38,3.03,5.18,4.25-.24.87-.47,1.69-.73,2.61h13.54c-.1-.4-.18-.81-.3-1.22-1.19-4.07-5.87-5.93-9.52-3.78Z"/>
        <path class="cls-10" d="m146.86,84.58c.85-1.19,1.95-.94,3.09-.57.9.42,1.81.84,2.71,1.27.09.05.19.09.28.14.15.1.3.22.46.31,4.62,2.61,8.6,5.96,11.81,10.2-1.03.51-2.06,1.02-3.08,1.53-.48.24-.95.47-1.43.71-.19-.27-.35-.56-.57-.8-1.96-2.15-4.19-3.98-6.63-5.56-.81-.52-1.66-.98-2.51-1.49-.09.17-.14.24-.17.33-1.12,3.15-1.66,6.37-1.22,9.71.3,2.3.89,4.51,2.11,6.51-.67,1.28-1.34,2.56-2.02,3.84-.11.21-.28.4-.42.59-.53-.81-1.11-1.59-1.58-2.44-2.53-4.51-3.28-9.38-2.91-14.48.09-1.22.21-2.45.32-3.67,0,0-.02,0-.02,0,.25-1.07.5-2.15.75-3.22.35-.97.69-1.94,1.04-2.92Z"/>
        <path class="cls-6" d="m209.46,132.17c-.67.46-1.35.92-2.04,1.36-.15.1-.29.19-.44.29-.05.37-.18.59-.57.27-.19.1-.37.2-.56.3.25.3.49.61.77.95-.49,1.38-.79,1.61-.07,2.16.34-.25.66-.48.91-.59.07-.7-.71-1.37.07-1.01.48-.24.82-.17,1.3-.42.02-.05.1-.36.15-.35.64-.42.58-.29,1.2-.73-.91-.63-.07-1.28-.72-2.24Z"/>
        <path class="cls-4" d="m196.54,115.1c1.31,1.6,2.11,3.62,2.16,5.76,0,.06,0,.13.01.19,0-.05,0-.11,0-.17-.04-2.2-.86-4.21-2.18-5.78Zm4.52-3.88c-.75-1.36-1.5-2.72-2.24-4.08.63,1.21,1.26,2.42,1.9,3.63.1.18.23.34.35.5,0-.02-.01-.03-.02-.05Zm16.99,1.05c-.19-.55-.52-1.06-.77-1.57-1.05.64-2.03,1.24-3.03,1.86-.36-1.69-.68-3.23-1.02-4.84-1.14.37-2.12.69-3.25,1.07,1.63-2.46,3.26-6.14,3.23-9.02-.6-.38-1.28-1.5-1.89-1.89-.24,1.19-.62,3.26-.76,3.9-1.12,5.11-4,8.97-8.32,11.83-.08.05-.17.08-.35.16-.02-.06-.04-.13-.06-.2-.03.04-.05.09-.04.13.2,1.24.4,2.48.62,3.71.03.17.13.36.26.47,1.32,1.05,2.66,2.08,4.01,3.13-.03.03-.07.05-.1.08.08-.03.17-.07.26-.1.98-.36,1.67.24,1.48,1.27-.11.58-.26,1.16-.48,1.71-1.3,3.21-3.17,6.04-5.83,8.3.22.05.46.17.66.13,1.89-.36,4.76,2.15,6.44,1.2,1.31-.74,3.76-2.71,4.93-3.64,1.67-1.33,1.35-1.98,2.94-3.42.18-.16.74-2,.94-2.15,1.2-2.26,1.8-5.03,1.87-7.61-.41-1.31-1.29-3.2-1.73-4.5Zm-12.34,4.25c-.1-.14-.45-.54-.41-.59.34-.39.72-.83,1.18-1.04.35-.16.65.2.63.63-.01.47-.67,1.01-1.4,1Zm3.28-4.04c-.28.42-.67.76-1.07,1.07-.04.03-.64-.49-.6-.57.22-.45.55-.84.85-1.26.1,0,.21,0,.31.02.18.25.57.65.51.74Zm1.55,7.33c-.26-.05-.47-.36-.71-.55.38-.41.74-.84,1.17-1.19.06-.05.45.3.59.4.02.68-.62,1.43-1.05,1.34Zm1.88-3.05c-.25-.06-.54-.3-.64-.53-.12-.28.74-1.29,1-1.2.27.09.48.32.63.42,0,.7-.57,1.4-.99,1.31Z"/>
        <path class="cls-4" d="m206.67,121s-.07.05-.1.08c-2.39,1.81-5,1.94-8.02,1.02.06-.34.13-.63.15-1.04h0c0-.06,0-.12,0-.18-.04-2.2-.86-4.21-2.18-5.78-.08-.11-.18-.21-.27-.31-.07-.08-.14-.16-.21-.23-.08-.09-.17-.18-.26-.26-.11-.11-.23-.22-.36-.32-.03-.03-.07-.06-.1-.09-.08-.08-.16-.15-.25-.2-.79-.64-1.69-1.15-2.66-1.5h0c-.18-.07-.36-.13-.55-.18-.11-.03-.23-.06-.34-.09-.04-.01-.08-.02-.12-.03-.09-.02-.18-.04-.27-.06-2.68-.6-5.09-.1-7.27,1.29-.63.4-1.24.88-1.84,1.42-2.26,2.08-3.32,4.82-4.1,7.68-.44,1.62-.69,3.29-1.03,4.94-1.09-.6-2.21-.53-3.34-.12-.07-.22-.16-.44-.2-.66-.42-2.51-.84-5.02-1.9-7.35-1.73-3.8-4.32-6.58-8.68-7.33-5.61-.97-10.99,3.4-11.1,9.14,0,.5.09.83.16,1.22-3.05.93-5.7.78-8.12-1.1,1.35-1.05,2.69-2.08,4.01-3.13.13-.1.23-.3.26-.47.22-1.23.42-2.47.62-3.71.01-.07-.06-.16-.1-.24.25-.7.49-1.4.74-2.1.14-.19.31-.38.42-.59.68-1.27,1.35-2.56,2.02-3.84.9-1.19,1.8-2.37,2.7-3.56.1-.05.23-.08.31-.15,1.27-1.13,2.54-2.26,3.81-3.39.73-.53,1.45-1.07,2.18-1.6l1.43-.71c1.03-.51,2.05-1.02,3.08-1.53.3-.08.6-.15.89-.24,5.31-1.76,10.68-2.1,16.13-.76,1.08.26,2.13.63,3.19.95,1.4.73,2.79,1.45,4.19,2.18.03.02.09-.01.14-.02.72.53,1.44,1.05,2.15,1.58.1.15.18.33.31.45.94.86,1.89,1.72,2.85,2.56.27.24.59.44.89.65.89,1.16,1.78,2.33,2.66,3.49.02.04.05.09.07.13.04.08.09.16.13.24.63,1.21,1.26,2.42,1.9,3.63.1.18.23.34.35.5.24.76.49,1.52.75,2.31-.03.04-.05.09-.04.13.2,1.24.4,2.48.62,3.71.03.17.13.36.26.47,1.32,1.05,2.66,2.08,4.01,3.13Z"/>
        <path class="cls-2" d="m191.14,111.81c-1.13-.24-2.32-.28-3.52-.07-1.43.25-2.67.71-3.75,1.36,2.18-1.39,4.59-1.89,7.27-1.29Z"/>
        <path class="cls-2" d="m191.87,112s.05.02.07.02c-.14-.04-.27-.08-.41-.12.11.03.23.06.34.09Z"/>
        <path class="cls-2" d="m192.42,112.18c-.16-.06-.32-.11-.48-.16.16.05.32.1.48.16Z"/>
        <path class="cls-2" d="m192.42,112.18c.97.35,1.87.86,2.66,1.5-.8-.63-1.7-1.14-2.66-1.5Z"/>
        <path class="cls-2" d="m198.81,107.14c-.05-.08-.09-.16-.13-.24,0,0,.01.02.02.03.04.07.08.14.11.21Z"/>
        <path class="cls-2" d="m201.88,113.45s-.04.08-.06.12c-.26-.78-.5-1.54-.75-2.31.02.03.05.06.07.09.24.7.49,1.4.74,2.1Z"/>
        <path class="cls-4" d="m151.24,137.54c-1.39,0-2.91,1.25-4.37,1.25-2.47,0-3.44-1.98-4.33-4.32-1.2-3.14-.95-6.22.3-9.27.02-.06.07-.1.17-.23.91,2.17,2.24,3.99,3.79,5.68,1.55,1.69,3.38,3.03,5.18,4.25-.24.88-.47,1.72-.73,2.65Z"/>
        <path class="cls-4" d="m202,132.26c.22.05.46.17.66.13,1.89-.36,3.72-.89,5.4-1.84,1.31-.74,2.68-1.43,3.85-2.37,1.67-1.33,3.19-2.86,4.77-4.31.18-.17,1.6-1.3,1.79-1.44-.89,1.39-2.23,4.45-3.23,5.74-1.94,2.5-5.2,3.64-7.82,5.36-.15.1-.3.19-.44.29,0,0,0,0,0,0-.19.09-.38.19-.57.28-.19.1-.37.2-.56.3-1.55.64-3.08,1.31-4.65,1.91-.74.28-1.54.41-2.28.6-.27-.64-.51-1.17-.7-1.73-.04-.13.09-.39.22-.48,1.18-.83,2.37-1.63,3.56-2.44Z"/>
        <path class="cls-7" d="m185.41,95.88c1.47-2.25,3.39-4.07,5.4-5.82,2.55-2.23,5.38-4.07,8.38-5.64.08-.04.17-.05.26-.08.56-.19,1.1-.42,1.67-.58,1.04-.28,1.81-.03,2.24.97.56,1.27.97,2.61,1.35,3.94.3,1.06.46,2.17.68,3.26.07.66.14,1.32.2,1.98,0,.09,0,.19.01.28,0,1.54,0,3.08-.01,4.62-.04.36-.08.72-.12,1.08-.05.33-.09.67-.14,1,0,.05-.01.09-.02.14-.06.25-.11.51-.17.76-.72,3.42-1.96,6.61-4.09,9.42-.82-1.48-1.63-2.97-2.45-4.45.08-.12.18-.22.24-.35,1.42-3.04,2.2-6.2,2-9.58-.13-2.24-.57-4.41-1.48-6.57-3.61,2.15-6.95,4.54-9.62,7.76-.05,0-.1.04-.14.02-1.4-.72-2.79-1.45-4.19-2.17Z"/>
        <path class="cls-11" d="m206.42,134.09c.19-.09.38-.19.57-.28-.05.37-.18.6-.57.28Z"/>
        <path class="cls-12" d="m176.89,127.14c1.4,1.21,1.72,2.38,1.02,3.67-.65,1.19-2.21,1.81-3.56,1.43-1.39-.39-2.32-1.63-2.11-3.05.08-.56.5-1.09.8-1.61.12-.22.34-.38.52-.56,1.13-.42,2.24-.48,3.34.12Z"/>
        <path class="cls-5" d="m191.89,99.62c1.54-1.34,3.29-2.25,5.44-2.75.08,2.33-.4,4.42-1.39,6.41-.3-.22-.62-.41-.89-.65-.96-.84-1.91-1.7-2.85-2.56-.13-.12-.21-.3-.31-.45Z"/>
        <path class="cls-9" d="m154.4,103.31c-.87-2.03-1.56-4.1-1.43-6.46,2.14.53,3.9,1.6,5.54,2.92-1.27,1.13-2.53,2.26-3.8,3.39-.08.07-.2.1-.31.15Z"/>
        <path class="cls-13" d="m205.7,116.53c-.1-.14-.45-.54-.41-.59.35-.4.72-.83,1.18-1.04.35-.16.64.2.63.63-.01.47-.67,1.01-1.4,1Z"/>
        <path class="cls-13" d="m211.59,118.47c.02.68-.62,1.43-1.05,1.34-.26-.05-.47-.36-.71-.55.38-.41.74-.84,1.17-1.19.06-.05.45.3.59.4Z"/>
        <path class="cls-13" d="m213.41,115.45c0,.7-.57,1.41-.99,1.31-.25-.06-.54-.3-.64-.53-.12-.28.74-1.29,1-1.2.27.09.49.32.63.42Z"/>
        <path class="cls-13" d="m208.48,111.75c.18.25.57.65.51.74-.28.41-.67.76-1.07,1.07-.04.03-.64-.49-.6-.57.22-.45.55-.85.85-1.26.1,0,.21.01.31.02Z"/>
        <path class="cls-11" d="m161.71,127.88c-3.39-.03-6.08-2.76-6.05-6.15.02-3.46,2.65-6.04,6.13-6.01,3.4.02,6.06,2.82,6.03,6.35-.03,3.28-2.72,5.85-6.11,5.82Zm-.66-6.18c.99-.02,1.89-.9,1.89-1.86,0-.99-.93-1.9-1.93-1.9-1.01,0-1.9.92-1.88,1.94.02.95.95,1.83,1.93,1.82Z"/>
        <path class="cls-8" d="m188.61,127.88c-3.35.02-5.99-2.63-6-6.02,0-3.39,2.7-6.11,6.08-6.14,3.42-.02,5.99,2.61,5.99,6.15,0,3.44-2.57,5.98-6.08,6Zm.84-9.93c-1.01.02-1.85.9-1.82,1.9.04.97.95,1.84,1.93,1.83.98,0,1.86-.89,1.86-1.88,0-.98-.93-1.86-1.97-1.84Z"/>
      </g>
    </g>
    <path class="cls-7" d="m211.15,98.68c5.18,3.98,8.45,9.79,8.45,16.24,0,10.84-9.22,19.85-21.22,21.46.01.14.02.28.03.42.04.94-.11,1.84-.4,2.7,13.87-1.51,24.65-11.95,24.65-24.57,0-7.48-3.79-14.2-9.76-18.74-.5-.38-1.22-.11-1.36.5s-.29,1.31-.38,2Z"/>
    <path class="cls-11" d="m221.57,139.17c0,.46-.19.88-.49,1.18-.3.3-.72.49-1.18.49h-89.08c-.92,0-1.67-.75-1.67-1.67,0-.46.19-.88.49-1.18.3-.3.72-.49,1.18-.49h15.22c.27.03.56.04.87.04,1.47,0,2.94,0,4.32,0,0-.01,0-.02,0-.03h13.54c1.6.1,3.16.18,4.72.27,2.25.14,4.5.42,6.75.38,2.92-.06,5.83-.38,8.74-.57.19-.01.34-.03.46-.08h34.45c.92,0,1.68.75,1.68,1.67Z"/>
    <path class="cls-1" d="m146.04,137.5h5.21s0,.02,0,.03c-1.39,0-2.86,0-4.32,0-.31,0-.6-.01-.87-.04Z"/>
  </g>
</svg>