<?xml version="1.0" encoding="UTF-8"?>
<svg id="Layer_1" data-name="Layer 1" xmlns="http://www.w3.org/2000/svg" viewBox="0 0 155.86 95.44">
  <defs>
    <style>
      .cls-1 {
        fill: #ed1c24;
        opacity: .33;
      }

      .cls-1, .cls-2, .cls-3, .cls-4, .cls-5, .cls-6, .cls-7, .cls-8, .cls-9, .cls-10, .cls-11, .cls-12 {
        stroke-width: 0px;
      }

      .cls-2 {
        fill: #1b1464;
        opacity: .43;
      }

      .cls-3 {
        fill: #8b0025;
      }

      .cls-4 {
        fill: #193645;
      }

      .cls-5 {
        fill: #193644;
      }

      .cls-6 {
        fill: #1a3541;
      }

      .cls-7 {
        fill: #1a3542;
      }

      .cls-8 {
        fill: #1b3542;
      }

      .cls-9 {
        fill: #1a3441;
      }

      .cls-10 {
        fill: #193441;
      }

      .cls-11 {
        fill: #193442;
      }

      .cls-12 {
        fill: #fff;
      }
    </style>
  </defs>
  <g>
    <path class="cls-3" d="m20.11,50.19c2.56,1.1,4.17,2.58,4.82,4.44.65,1.86.38,4.19-.83,7.01-.77,1.79-1.67,3.37-2.71,4.75s-2.17,2.5-3.39,3.36l-6.96-2.99c2.63-1.1,4.44-2.79,5.42-5.08.44-1.03.61-1.88.51-2.58s-.46-1.17-1.07-1.43c-.15-.07-.31-.12-.46-.15.08.47.08,1.02-.01,1.66s-.27,1.28-.55,1.93c-.82,1.92-2,3.21-3.52,3.88-1.54.66-3.19.6-4.95-.15-1.09-.47-1.97-1.12-2.65-1.97-.7-.85-1.09-1.78-1.17-2.78s.05-2.01.4-3.02c.17-.52.38-1.08.62-1.7s.52-1.28.82-2.01l3.59-8.36,12.1,5.2Zm-7.99,7.19c.2-.46.24-.87.14-1.24l-3.31-1.42-.09.22c-.36.85-.49,1.56-.39,2.12s.5,1,1.19,1.3c.53.23,1.02.25,1.46.07s.77-.53.99-1.05Z"/>
    <path class="cls-3" d="m34.73,36.9l-5.54,6.52-.95-.81c-.05.76-.23,1.5-.54,2.21-.32.75-.69,1.37-1.11,1.86-.81.96-1.81,1.5-3,1.63-1.18.11-2.25-.24-3.21-1.05-1.08-.91-1.62-2.06-1.63-3.45-.02-1.39.53-2.74,1.63-4.03.32-.38.67-.74,1.03-1.07s.75-.63,1.15-.91c-.3-.26-.62-.42-.96-.5s-.69-.07-1.03.02-.7.26-1.05.51-.69.57-1.03.96c-.53.63-.96,1.3-1.3,2.02-.16.35-.31.73-.44,1.15s-.25.87-.36,1.36l-3.82-3.24c.03-.18.09-.42.16-.72s.18-.66.32-1.09.3-.87.49-1.32.42-.91.69-1.38c.52-.95,1.23-1.96,2.14-3.03,1.94-2.28,3.83-3.52,5.68-3.72,1.85-.21,3.69.46,5.53,2.02l7.14,6.06Zm-8.86,5.45c.33-.39.51-.83.51-1.31l-1.77-1.51c-.26.17-.47.31-.63.43s-.32.28-.48.47c-.33.39-.49.79-.5,1.19s.17.76.5,1.04.74.41,1.2.34.84-.29,1.17-.68Z"/>
    <path class="cls-3" d="m50.35,22.13c1.44,2.39,1.89,4.52,1.34,6.41s-2.14,3.63-4.76,5.22c-1.67,1.01-3.32,1.77-4.97,2.29s-3.22.77-4.71.76l-3.92-6.48c2.78.64,5.24.31,7.37-.98.96-.58,1.59-1.18,1.91-1.8s.31-1.21-.03-1.78c-.09-.14-.18-.27-.29-.39-.21.43-.53.87-.98,1.34s-.97.88-1.57,1.25c-1.78,1.08-3.49,1.45-5.12,1.11-1.63-.36-2.94-1.36-3.94-3.01-.61-1.01-.95-2.06-1.01-3.14-.07-1.1.15-2.08.66-2.94s1.21-1.6,2.08-2.23c.44-.32.94-.66,1.5-1.02s1.17-.74,1.83-1.16l7.78-4.71,6.82,11.27Zm-10.68,1.2c.43-.26.7-.57.83-.92l-1.86-3.08-.2.12c-.79.48-1.31.98-1.55,1.5s-.17,1.11.22,1.75c.3.5.68.8,1.15.91s.94.02,1.42-.28Z"/>
    <path class="cls-3" d="m69.9,20.13l-8.34,1.89-.28-1.22c-.49.58-1.08,1.06-1.76,1.45-.7.41-1.37.68-2,.82-1.22.28-2.35.11-3.38-.5-1.01-.62-1.66-1.55-1.93-2.77-.31-1.38-.06-2.62.77-3.74.82-1.12,2.06-1.87,3.72-2.25.49-.11.97-.19,1.47-.23s.98-.06,1.47-.03c-.09-.39-.24-.71-.47-.98s-.51-.47-.84-.6-.72-.21-1.14-.22-.89.04-1.4.15c-.8.18-1.55.46-2.25.84-.34.18-.68.4-1.04.65s-.72.54-1.1.87l-1.11-4.89c.13-.12.32-.28.56-.47s.54-.42.91-.68.76-.52,1.18-.76.88-.47,1.38-.69c.99-.45,2.16-.83,3.53-1.14,2.92-.66,5.17-.52,6.77.44,1.61.94,2.67,2.59,3.21,4.94l2.07,9.13Zm-10.35-.96c.5-.11.9-.36,1.2-.74l-.51-2.27c-.31-.02-.56-.04-.77-.03s-.43.03-.67.09c-.5.11-.87.33-1.11.66s-.32.7-.22,1.14.35.77.75.99.85.28,1.34.16Z"/>
    <path class="cls-3" d="m85.42,12.95l-2.48-.15s.37-2.07.57-4.21c.26-2.76.01-5.45.01-5.45l-9.86.83s1.58,6.05-.13,16.03l6.43.38,2.67.16,5.83.34.45-7.72-3.49-.21Z"/>
    <g>
      <path class="cls-3" d="m93.98,19.05l-.97,3.29,8.21,2.42,1.17-3.98c1.18-4,1.38-7.54.28-11.68l-8.45,1.79c.59,1.95.33,6.21-.24,8.16Z"/>
      <path class="cls-3" d="m95.34,8.3c.85.25,1.68.15,2.47-.29.81-.44,1.34-1.09,1.59-1.96s.17-1.72-.28-2.49c-.43-.79-1.07-1.31-1.92-1.56s-1.7-.16-2.51.28c-.8.43-1.33,1.07-1.58,1.92s-.16,1.7.28,2.51,1.09,1.34,1.96,1.59Z"/>
    </g>
    <path class="cls-3" d="m120.07,36.4l-6.73-4.48,5.43-8.16c.34-.51.5-.98.49-1.42s-.24-.81-.7-1.12c-.19-.13-.44-.23-.73-.3s-.58-.11-.85-.1l-6.24,9.37s-6.24-4.15-7.12-4.74c7.27-10.3,7.97-13.97,7.97-13.97l7.85,4.52-.63,2.05c1.11-.23,2.09-.26,2.96-.09s1.73.53,2.57,1.1c1.67,1.11,2.61,2.41,2.83,3.9.23,1.49-.21,3.06-1.3,4.71l-5.81,8.74Z"/>
    <path class="cls-3" d="m135.6,51.52c-2.26,1.63-4.36,2.24-6.29,1.85s-3.79-1.84-5.58-4.33c-1.14-1.58-2.03-3.17-2.67-4.77s-1.02-3.15-1.13-4.64l6.15-4.42c-.41,2.82.11,5.25,1.56,7.27.65.91,1.3,1.49,1.94,1.77s1.24.21,1.77-.18c.13-.1.26-.2.37-.32-.44-.17-.91-.46-1.42-.87s-.96-.89-1.37-1.46c-1.22-1.69-1.72-3.37-1.51-5.02.23-1.66,1.12-3.04,2.68-4.17.96-.69,1.98-1.11,3.05-1.26,1.09-.16,2.09-.02,2.99.43s1.7,1.08,2.39,1.9c.36.42.73.89,1.13,1.41s.83,1.1,1.3,1.73l5.31,7.38-10.69,7.69Zm-2.05-10.55c.29.4.62.66.99.76l2.92-2.1-.14-.19c-.54-.75-1.08-1.22-1.62-1.43s-1.12-.08-1.72.35c-.47.34-.74.75-.81,1.22s.06.94.39,1.39Z"/>
    <path class="cls-3" d="m152.06,57.73c.41,1.27.58,2.5.52,3.7s-.34,2.3-.82,3.3-1.16,1.88-2.03,2.64c-.87.76-1.9,1.33-3.1,1.71s-2.35.52-3.49.42-2.2-.42-3.17-.95-1.84-1.26-2.59-2.2-1.34-2.04-1.75-3.33c-.52-1.62-.66-3.2-.41-4.75.25-1.54.87-2.88,1.87-4.04,1.01-1.15,2.32-1.99,3.95-2.51s3.14-.61,4.64-.29c1.49.33,2.8,1.04,3.9,2.13,1.12,1.09,1.95,2.47,2.49,4.16Zm-9.88,3.19c.18.55.48.94.91,1.16s.92.24,1.47.06.94-.49,1.16-.92.25-.93.07-1.48c-.09-.26-.21-.49-.36-.68s-.34-.33-.55-.43-.44-.16-.7-.18-.51.02-.77.1c-.54.17-.92.48-1.15.91s-.26.92-.09,1.45Z"/>
  </g>
  <g>
    <g id="J61ypG">
      <g>
        <path class="cls-10" d="m105.86,73.17c-1.28.48-1.12-.45-2.39.07,0,0,0,2.62-.78,4.1-1.69,3.21-4.43,5.47-7.39,7.48-.18.12-.55.13-.73.02-3.86-2.4-8.84-.26-9.73,4.26-.07.35-.18.51-.37.6h21.11c.09-.06.2-.15.31-.23q-.73-.55-.24-1.92c-.27-.34-.52-.65-.76-.95-1.55.64-3.08,1.32-4.65,1.91-.74.28-1.53.41-2.28.6-.26-.64-.51-1.17-.69-1.73-.04-.13.09-.39.22-.48,1.18-.83,2.37-1.63,3.56-2.44,2.66-2.26,4.53-5.08,5.83-8.3.22-.55.37-1.13.48-1.71.18-1.02-.51-1.63-1.48-1.27Zm-51.86,11.53c-.39.23-.63.21-1.01-.03-2.87-1.87-5.32-4.15-7.09-7.09-.54-.9-1.11-2.24-.88-3.96,0,0-1.62-.14-2.27-.48,1.35-1.05,2.69-2.08,4.01-3.13.13-.1.23-.3.26-.47.22-1.23.42-2.47.62-3.71.01-.07-.06-.16-.1-.24-3.12,1.76-5.56,4.22-7.43,7.26-.19.3-.37.61-.55.91-.08.15-.16.3-.24.45-.14.31-.28.63-.42.94l-.02.04c-.14.37-.27.73-.42,1.1v.04c-.1.27-.19.55-.28.82-.05.21-.1.41-.15.62-.15.71-.3,1.42-.45,2.13,0,.1-.02.19-.02.28-.04.38-.09.76-.13,1.14,0,.33-.01.66-.02,1,0,.48.02.95.02,1.43.02.19.05.38.08.57l.03.29c.29,1.09.58,2.18.87,3.28.04.03.05.06.03.11.04.11.08.21.13.32l.32.66c.12.24.24.49.36.73h5.81c-1.85-.17-2.73-.99-3.5-3.03-1.2-3.14-.95-6.22.3-9.28.02-.06.07-.1.17-.23.91,2.18,2.24,3.99,3.79,5.68,1.55,1.69,3.38,3.03,5.18,4.25-.24.87-.47,1.69-.73,2.61h13.54c-.1-.4-.18-.81-.3-1.22-1.19-4.07-5.87-5.93-9.52-3.78Z"/>
        <path class="cls-9" d="m45.89,36.77c.85-1.19,1.95-.94,3.09-.57.9.42,1.81.84,2.71,1.27.09.05.19.09.28.14.15.1.3.22.46.31,4.62,2.61,8.6,5.96,11.81,10.2-1.03.51-2.06,1.02-3.08,1.53-.48.24-.95.47-1.43.71-.19-.27-.35-.56-.57-.8-1.96-2.15-4.19-3.98-6.63-5.56-.81-.52-1.66-.98-2.51-1.49-.09.17-.14.24-.17.33-1.12,3.15-1.66,6.37-1.22,9.71.3,2.3.89,4.51,2.11,6.51-.67,1.28-1.34,2.56-2.02,3.84-.11.21-.28.4-.42.59-.53-.81-1.11-1.59-1.58-2.44-2.53-4.51-3.28-9.38-2.91-14.48.09-1.22.21-2.45.32-3.67,0,0-.02,0-.02,0,.25-1.07.5-2.15.75-3.22.35-.97.69-1.94,1.04-2.92Z"/>
        <path class="cls-5" d="m108.5,84.36c-.67.46-1.35.92-2.04,1.36-.15.1-.29.19-.44.29-.05.37-.18.59-.57.27-.19.1-.37.2-.56.3.25.3.49.61.77.95-.49,1.38-.79,1.61-.07,2.16.34-.25.66-.48.91-.59.07-.7-.71-1.37.07-1.01.48-.24.82-.17,1.3-.42.02-.05.1-.36.15-.35.64-.42.58-.29,1.2-.73-.91-.63-.07-1.28-.72-2.24Z"/>
        <path class="cls-3" d="m95.57,67.29c1.31,1.6,2.11,3.62,2.16,5.76,0,.06,0,.13.01.19,0-.05,0-.11,0-.17-.04-2.2-.86-4.21-2.18-5.78Zm4.52-3.88c-.75-1.36-1.5-2.72-2.24-4.08.63,1.21,1.26,2.42,1.9,3.63.1.18.23.34.35.5,0-.02-.01-.03-.02-.05Zm16.99,1.05c-.19-.55-.52-1.06-.77-1.57-1.05.64-2.03,1.24-3.03,1.86-.36-1.69-.68-3.23-1.02-4.84-1.14.37-2.12.69-3.25,1.07,1.63-2.46,3.26-6.14,3.23-9.02-.6-.38-1.28-1.5-1.89-1.89-.24,1.19-.62,3.26-.76,3.9-1.12,5.11-4,8.97-8.32,11.83-.08.05-.17.08-.35.16-.02-.06-.04-.13-.06-.2-.03.04-.05.09-.04.13.2,1.24.4,2.48.62,3.71.03.17.13.36.26.47,1.32,1.05,2.66,2.08,4.01,3.13-.03.03-.07.05-.1.08.08-.03.17-.07.26-.1.98-.36,1.67.24,1.48,1.27-.11.58-.26,1.16-.48,1.71-1.3,3.21-3.17,6.04-5.83,8.3.22.05.46.17.66.13,1.89-.36,4.76,2.15,6.44,1.2,1.31-.74,3.76-2.71,4.93-3.64,1.67-1.33,1.35-1.98,2.94-3.42.18-.16.74-2,.94-2.15,1.2-2.26,1.8-5.03,1.87-7.61-.41-1.31-1.29-3.2-1.73-4.5Zm-12.34,4.25c-.1-.14-.45-.54-.41-.59.34-.39.72-.83,1.18-1.04.35-.16.65.2.63.63-.01.47-.67,1.01-1.4,1Zm3.28-4.04c-.28.42-.67.76-1.07,1.07-.04.03-.64-.49-.6-.57.22-.45.55-.84.85-1.26.1,0,.21,0,.31.02.18.25.57.65.51.74Zm1.55,7.33c-.26-.05-.47-.36-.71-.55.38-.41.74-.84,1.17-1.19.06-.05.45.3.59.4.02.68-.62,1.43-1.05,1.34Zm1.88-3.05c-.25-.06-.54-.3-.64-.53-.12-.28.74-1.29,1-1.2.27.09.48.32.63.42,0,.7-.57,1.4-.99,1.31Z"/>
        <path class="cls-3" d="m105.71,73.19s-.07.05-.1.08c-2.39,1.81-5,1.94-8.02,1.02.06-.34.13-.63.15-1.04h0c0-.06,0-.12,0-.18-.04-2.2-.86-4.21-2.18-5.78-.08-.11-.18-.21-.27-.31-.07-.08-.14-.16-.21-.23-.08-.09-.17-.18-.26-.26-.11-.11-.23-.22-.36-.32-.03-.03-.07-.06-.1-.09-.08-.08-.16-.15-.25-.2-.79-.64-1.69-1.15-2.66-1.5h0c-.18-.07-.36-.13-.55-.18-.11-.03-.23-.06-.34-.09-.04-.01-.08-.02-.12-.03-.09-.02-.18-.04-.27-.06-2.68-.6-5.09-.1-7.27,1.29-.63.4-1.24.88-1.84,1.42-2.26,2.08-3.32,4.82-4.1,7.68-.44,1.62-.69,3.29-1.03,4.94-1.09-.6-2.21-.53-3.34-.12-.07-.22-.16-.44-.2-.66-.42-2.51-.84-5.02-1.9-7.35-1.73-3.8-4.32-6.58-8.68-7.33-5.61-.97-10.99,3.4-11.1,9.14,0,.5.09.83.16,1.22-3.05.93-5.7.78-8.12-1.1,1.35-1.05,2.69-2.08,4.01-3.13.13-.1.23-.3.26-.47.22-1.23.42-2.47.62-3.71.01-.07-.06-.16-.1-.24.25-.7.49-1.4.74-2.1.14-.19.31-.38.42-.59.68-1.27,1.35-2.56,2.02-3.84.9-1.19,1.8-2.37,2.7-3.56.1-.05.23-.08.31-.15,1.27-1.13,2.54-2.26,3.81-3.39.73-.53,1.45-1.07,2.18-1.6l1.43-.71c1.03-.51,2.05-1.02,3.08-1.53.3-.08.6-.15.89-.24,5.31-1.76,10.68-2.1,16.13-.76,1.08.26,2.13.63,3.19.95,1.4.73,2.79,1.45,4.19,2.18.03.02.09-.01.14-.02.72.53,1.44,1.05,2.15,1.58.1.15.18.33.31.45.94.86,1.89,1.72,2.85,2.56.27.24.59.44.89.65.89,1.16,1.78,2.33,2.66,3.49.02.04.05.09.07.13.04.08.09.16.13.24.63,1.21,1.26,2.42,1.9,3.63.1.18.23.34.35.5.24.76.49,1.52.75,2.31-.03.04-.05.09-.04.13.2,1.24.4,2.48.62,3.71.03.17.13.36.26.47,1.32,1.05,2.66,2.08,4.01,3.13Z"/>
        <path class="cls-2" d="m90.17,64.01c-1.13-.24-2.32-.28-3.52-.07-1.43.25-2.67.71-3.75,1.36,2.18-1.39,4.59-1.89,7.27-1.29Z"/>
        <path class="cls-2" d="m90.9,64.19s.05.02.07.02c-.14-.04-.27-.08-.41-.12.11.03.23.06.34.09Z"/>
        <path class="cls-2" d="m91.45,64.37c-.16-.06-.32-.11-.48-.16.16.05.32.1.48.16Z"/>
        <path class="cls-2" d="m91.46,64.37c.97.35,1.87.86,2.66,1.5-.8-.63-1.7-1.14-2.66-1.5Z"/>
        <path class="cls-2" d="m97.84,59.33c-.05-.08-.09-.16-.13-.24,0,0,.01.02.02.03.04.07.08.14.11.21Z"/>
        <path class="cls-2" d="m100.91,65.65s-.04.08-.06.12c-.26-.78-.5-1.54-.75-2.31.02.03.05.06.07.09.24.7.49,1.4.74,2.1Z"/>
        <path class="cls-3" d="m50.28,89.73c-1.39,0-2.91,1.25-4.37,1.25-2.47,0-3.44-1.98-4.33-4.32-1.2-3.14-.95-6.22.3-9.27.02-.06.07-.1.17-.23.91,2.17,2.24,3.99,3.79,5.68,1.55,1.69,3.38,3.03,5.18,4.25-.24.88-.47,1.72-.73,2.65Z"/>
        <path class="cls-3" d="m101.03,84.45c.22.05.46.17.66.13,1.89-.36,3.72-.89,5.4-1.84,1.31-.74,2.68-1.43,3.85-2.37,1.67-1.33,3.19-2.86,4.77-4.31.18-.17,1.6-1.3,1.79-1.44-.89,1.39-2.23,4.45-3.23,5.74-1.94,2.5-5.2,3.64-7.82,5.36-.15.1-.3.19-.44.29,0,0,0,0,0,0-.19.09-.38.19-.57.28-.19.1-.37.2-.56.3-1.55.64-3.08,1.31-4.65,1.91-.74.28-1.54.41-2.28.6-.27-.64-.51-1.17-.7-1.73-.04-.13.09-.39.22-.48,1.18-.83,2.37-1.63,3.56-2.44Z"/>
        <path class="cls-6" d="m84.44,48.08c1.47-2.25,3.39-4.07,5.4-5.82,2.55-2.23,5.38-4.07,8.38-5.64.08-.04.17-.05.26-.08.56-.19,1.1-.42,1.67-.58,1.04-.28,1.81-.03,2.24.97.56,1.27.97,2.61,1.35,3.94.3,1.06.46,2.17.68,3.26.07.66.14,1.32.2,1.98,0,.09,0,.19.01.28,0,1.54,0,3.08-.01,4.62-.04.36-.08.72-.12,1.08-.05.33-.09.67-.14,1,0,.05-.01.09-.02.14-.06.25-.11.51-.17.76-.72,3.42-1.96,6.61-4.09,9.42-.82-1.48-1.63-2.97-2.45-4.45.08-.12.18-.22.24-.35,1.42-3.04,2.2-6.2,2-9.58-.13-2.24-.57-4.41-1.48-6.57-3.61,2.15-6.95,4.54-9.62,7.76-.05,0-.1.04-.14.02-1.4-.72-2.79-1.45-4.19-2.17Z"/>
        <path class="cls-10" d="m105.45,86.29c.19-.09.38-.19.57-.28-.05.37-.18.6-.57.28Z"/>
        <path class="cls-11" d="m75.92,79.34c1.4,1.21,1.72,2.38,1.02,3.67-.65,1.19-2.21,1.81-3.56,1.43-1.39-.39-2.32-1.63-2.11-3.05.08-.56.5-1.09.8-1.61.12-.22.34-.38.52-.56,1.13-.42,2.24-.48,3.34.12Z"/>
        <path class="cls-4" d="m90.92,51.81c1.54-1.34,3.29-2.25,5.44-2.75.08,2.33-.4,4.42-1.39,6.41-.3-.22-.62-.41-.89-.65-.96-.84-1.91-1.7-2.85-2.56-.13-.12-.21-.3-.31-.45Z"/>
        <path class="cls-8" d="m53.43,55.5c-.87-2.03-1.56-4.1-1.43-6.46,2.14.53,3.9,1.6,5.54,2.92-1.27,1.13-2.53,2.26-3.8,3.39-.08.07-.2.1-.31.15Z"/>
        <path class="cls-12" d="m104.73,68.72c-.1-.14-.45-.54-.41-.59.35-.4.72-.83,1.18-1.04.35-.16.64.2.63.63-.01.47-.67,1.01-1.4,1Z"/>
        <path class="cls-12" d="m110.62,70.66c.02.68-.62,1.43-1.05,1.34-.26-.05-.47-.36-.71-.55.38-.41.74-.84,1.17-1.19.06-.05.45.3.59.4Z"/>
        <path class="cls-12" d="m112.44,67.64c0,.7-.57,1.41-.99,1.31-.25-.06-.54-.3-.64-.53-.12-.28.74-1.29,1-1.2.27.09.49.32.63.42Z"/>
        <path class="cls-12" d="m107.51,63.94c.18.25.57.65.51.74-.28.41-.67.76-1.07,1.07-.04.03-.64-.49-.6-.57.22-.45.55-.85.85-1.26.1,0,.21.01.31.02Z"/>
        <path class="cls-10" d="m60.74,80.07c-3.39-.03-6.08-2.76-6.05-6.15.02-3.46,2.65-6.04,6.13-6.01,3.4.02,6.06,2.82,6.03,6.35-.03,3.28-2.72,5.85-6.11,5.82Zm-.66-6.18c.99-.02,1.89-.9,1.89-1.86,0-.99-.93-1.9-1.93-1.9-1.01,0-1.9.92-1.88,1.94.02.95.95,1.83,1.93,1.82Z"/>
        <path class="cls-7" d="m87.64,80.07c-3.35.02-5.99-2.63-6-6.02,0-3.39,2.7-6.11,6.08-6.14,3.42-.02,5.99,2.61,5.99,6.15,0,3.44-2.57,5.98-6.08,6Zm.84-9.93c-1.01.02-1.85.9-1.82,1.9.04.97.95,1.84,1.93,1.83.98,0,1.86-.89,1.86-1.88,0-.98-.93-1.86-1.97-1.84Z"/>
      </g>
    </g>
    <path class="cls-6" d="m110.18,50.87c5.18,3.98,8.45,9.79,8.45,16.24,0,10.84-9.22,19.85-21.22,21.46.01.14.02.28.03.42.04.94-.11,1.84-.4,2.7,13.87-1.51,24.65-11.95,24.65-24.57,0-7.48-3.79-14.2-9.76-18.74-.5-.38-1.22-.11-1.36.5s-.29,1.31-.38,2Z"/>
    <path class="cls-10" d="m120.6,91.37c0,.46-.19.88-.49,1.18-.3.3-.72.49-1.18.49H29.85c-.92,0-1.67-.75-1.67-1.67,0-.46.19-.88.49-1.18.3-.3.72-.49,1.18-.49h15.22c.27.03.56.04.87.04,1.47,0,2.94,0,4.32,0,0-.01,0-.02,0-.03h13.54c1.6.1,3.16.18,4.72.27,2.25.14,4.5.42,6.75.38,2.92-.06,5.83-.38,8.74-.57.19-.01.34-.03.46-.08h34.45c.92,0,1.68.75,1.68,1.67Z"/>
    <path class="cls-1" d="m45.08,89.69h5.21s0,.02,0,.03c-1.39,0-2.86,0-4.32,0-.31,0-.6-.01-.87-.04Z"/>
  </g>
</svg>